<?xml version="1.0" encoding="utf-8"?>
<!-- Generator: Adobe Illustrator 22.0.0, SVG Export Plug-In . SVG Version: 6.00 Build 0)  -->
<svg version="1.1" id="Layer_1" xmlns="http://www.w3.org/2000/svg" xmlns:xlink="http://www.w3.org/1999/xlink" x="0px" y="0px"
	 viewBox="0 0 216 216" style="enable-background:new 0 0 216 216;" xml:space="preserve">
<style type="text/css">
	.st0{display:none;fill:#FF0100;}
	.st1{fill:#FF0100;}
</style>
<path class="st0" d="M107.5,211C49.9,211,3,164.1,3,106.5C3,48.9,49.9,2,107.5,2C165.1,2,212,48.9,212,106.5
	C212,164.1,165.1,211,107.5,211z M107.5,7C52.6,7,8,51.6,8,106.5S52.6,206,107.5,206s99.5-44.6,99.5-99.5S162.4,7,107.5,7z"/>
<path class="st1" d="M107.5,2C49.8,2,3,48.8,3,106.5C3,164.2,49.8,211,107.5,211S212,164.2,212,106.5C212,48.8,165.2,2,107.5,2z
	 M180.5,162.4L161.9,181l-54.1-54.1L53.8,181l-18.6-18.6l54.1-54.1L35.2,54.3l18.6-18.6l54.1,54.1l54.1-54.1l18.6,18.6l-54.1,54.1
	L180.5,162.4z"/>
</svg>
