<?xml version="1.0" encoding="utf-8"?>
<!-- Generator: Adobe Illustrator 22.0.0, SVG Export Plug-In . SVG Version: 6.00 Build 0)  -->
<svg version="1.1" id="Layer_1" xmlns="http://www.w3.org/2000/svg" xmlns:xlink="http://www.w3.org/1999/xlink" x="0px" y="0px"
	 viewBox="0 0 1024 1024" style="enable-background:new 0 0 1024 1024;" xml:space="preserve">
<style type="text/css">
	.st0{fill-rule:evenodd;clip-rule:evenodd;fill:url(#SVGID_1_);}
	.st1{fill-rule:evenodd;clip-rule:evenodd;fill:url(#SVGID_2_);}
	.st2{fill-rule:evenodd;clip-rule:evenodd;fill:url(#SVGID_3_);}
	.st3{fill-rule:evenodd;clip-rule:evenodd;fill:url(#SVGID_4_);}
	.st4{opacity:0.45;fill-rule:evenodd;clip-rule:evenodd;fill:#D9B029;}
	.st5{fill:#273C93;}
</style>
<linearGradient id="SVGID_1_" gradientUnits="userSpaceOnUse" x1="514.9995" y1="798.8809" x2="514.9995" y2="-18.4191">
	<stop  offset="0" style="stop-color:#3D3B2F"/>
	<stop  offset="1" style="stop-color:#726F68"/>
</linearGradient>
<path class="st0" d="M183.3,1h663.5c99,0,179.3,80.3,179.3,179.3v663.6c0,99-80.3,179.3-179.3,179.3H183.3
	C84.2,1023.3,4,943,4,843.9V180.3C4,81.3,84.2,1,183.3,1z"/>
<linearGradient id="SVGID_2_" gradientUnits="userSpaceOnUse" x1="516.9731" y1="1.2533" x2="516.9731" y2="1042.6371">
	<stop  offset="0" style="stop-color:#FFFFFF"/>
	<stop  offset="0.3636" style="stop-color:#CACECE"/>
	<stop  offset="0.5697" style="stop-color:#7F898A"/>
	<stop  offset="0.8424" style="stop-color:#F0F2F2"/>
	<stop  offset="1" style="stop-color:#B0C1C1"/>
</linearGradient>
<path class="st1" d="M186.6,6.7h660.8c95.6,0,173.2,77.5,173.2,173.2v662.7c0,95.6-77.5,173.2-173.2,173.2H186.6
	c-95.6,0-173.2-77.5-173.2-173.2V179.8C13.4,84.2,90.9,6.7,186.6,6.7z"/>
<linearGradient id="SVGID_3_" gradientUnits="userSpaceOnUse" x1="515.0061" y1="29.399" x2="515.0061" y2="845.4291">
	<stop  offset="0" style="stop-color:#726F68"/>
	<stop  offset="1" style="stop-color:#3D3B2F"/>
</linearGradient>
<path class="st2" d="M190.6,48.5h648.8c76.9,0,139.3,62.4,139.3,139.3v648.8c0,76.9-62.4,139.3-139.3,139.3H190.6
	c-76.9,0-139.3-62.4-139.3-139.3V187.8C51.3,110.8,113.6,48.5,190.6,48.5z"/>
<linearGradient id="SVGID_4_" gradientUnits="userSpaceOnUse" x1="220.9082" y1="-1.8918" x2="809.0412" y2="1016.7843">
	<stop  offset="0" style="stop-color:#FFE24F"/>
	<stop  offset="0.457" style="stop-color:#FFD400"/>
	<stop  offset="1" style="stop-color:#FFD400"/>
</linearGradient>
<path class="st3" d="M197.9,54.8h637.7c75.6,0,136.9,61.3,136.9,136.9v637.7c0,75.6-61.3,136.9-136.9,136.9H197.9
	C122.3,966.4,61,905.1,61,829.4V191.7C61,116.1,122.3,54.8,197.9,54.8z"/>
<path class="st4" d="M835.6,54.5H198C122.3,54.5,61,115.8,61,191.5v637.7c0,75.6,61.3,136.9,136.9,136.9h637.7
	c75.6,0,136.9-61.3,136.9-136.9V191.5C972.6,115.8,911.3,54.5,835.6,54.5z M961.7,829.3c0,73.8-59.8,133.7-133.6,133.7H205.6
	c-73.8,0-133.7-59.8-133.7-133.7V206.8c0-73.8,59.8-133.7,133.7-133.7H828c73.8,0,133.6,59.8,133.6,133.7V829.3z"/>
<g>
	<path class="st5" d="M621.5,474.7l109.2-109.5c3.1-2.9,2-7.2,2-7.2c-1-7.5-7.6-6.8-7.6-6.8h-47.5c-13.3,0-20,8.7-20,8.7l-93.5,98.5
		v-92.4c-0.4-12.6-14.2-14.8-14.2-14.8h-48.8c-13.1,1.7-12.7,13.7-12.7,13.7v286.3c0.3,13,12.7,14.3,12.7,14.3l42.5,0.1
		c20.3,2.2,20.7-15.5,20.7-15.5l0.2-122.8l5.7-6L665,655.7c5.7,9.2,21.4,10.3,21.4,10.3l62.3,0c7.5,0.3,9.8-4.2,9.8-4.2
		c3.8-5.9-1.3-12.9-1.3-12.9L621.5,474.7z"/>
	<path class="st5" d="M303.2,350.6c-87.7,0-158.8,71-158.8,158.6s71.1,158.6,158.8,158.6c87.7,0,158.8-71,158.8-158.6
		S390.9,350.6,303.2,350.6z M303.8,605.1c-53.1,0-96.1-42.9-96.1-95.9c0-52.9,43-95.9,96.1-95.9c53.1,0,96.1,42.9,96.1,95.9
		C399.8,562.2,356.8,605.1,303.8,605.1z"/>
	<path class="st5" d="M370.1,462.4c-11.8-12.5-24.3-2.2-24.3-2.2L275.3,532l-20.6-20.3c-13.4-11.9-25.9,1.6-25.9,1.6
		c-12.1,12.8-2.5,23.8-2.5,23.8l36,36.5c15.5,13.1,27.9-2.3,27.9-2.3l82.4-83.8C382.8,473,370.1,462.4,370.1,462.4z"/>
	<path class="st5" d="M882.5,514.1c-9.3-8.6-23.8-16.1-43.7-22.7v-50.9c6.3,0.8,11.2,2.1,14.5,4.1c3.4,2,6.3,5.3,8.9,10.1
		c2.2,4.3,4.3,7.2,6.4,8.7c2.1,1.5,4.8,2.2,8.1,2.2c3.9,0,7.1-1.1,9.7-3.4c2.6-2.2,3.9-5,3.9-8.4c0-6.9-5-13-15-18.5
		c-10-5.5-22.2-8.4-36.6-8.8v-19.4h-16v20.1c-16.1,2.2-28.9,7.6-38.5,16.1c-9.6,8.5-14.4,18.7-14.4,30.6c0,10.6,4.3,19.9,13,27.9
		c8.6,7.9,21.9,14.8,39.9,20.7l-0.2,59c-5-0.2-9.2-1-12.5-2.5c-3.3-1.5-6.3-3.9-9-7.2c-0.7-0.9-1.7-2.3-3-4
		c-4.2-6.3-9.6-9.5-16.1-9.5c-4.1,0-7.4,1.1-10.1,3.2c-2.7,2.1-4.1,4.7-4.1,7.7c0,6.9,5,12.7,14.9,17.6c9.9,4.9,23.3,7.9,40.1,9
		v29.6h16v-29.6c17.9-2.2,31.9-8,42.2-17.2c10.3-9.2,15.4-20.6,15.4-34.3C896.4,532.7,891.7,522.7,882.5,514.1z M822.8,485.6
		c-8.2-3.1-14.3-6.6-18.3-10.5c-4-3.9-6-8.3-6-13.2c0-5,2-9.3,6.1-12.9c4.1-3.6,10.1-6.4,18.1-8.4V485.6z M859.9,571.8
		c-4.9,4.2-12,7-21.2,8.4v-51.8c9.5,3,16.6,6.8,21.4,11.4c4.8,4.6,7.2,9.8,7.2,15.8C867.4,562.2,864.9,567.6,859.9,571.8z"/>
</g>
<g>
	<path d="M725.1,351.2h-47.5c-13.3,0-20,8.7-20,8.7l-91.8,96.7v2.9l93.5-98.5c0,0,6.8-8.7,20-8.7h47.5c0,0,1.8-0.2,3.6,0.7
		C728.2,350.9,725.1,351.2,725.1,351.2z"/>
	<path d="M501.1,351.2c-13.1,1.7-12.7,13.7-12.7,13.7v286.3c0.1,6.8,3.7,10.4,7,12.3c-2.7-2.1-5.1-5.5-5.2-11.2V366.1
		c0,0-0.4-12,12.7-13.7h48.8c0,0,3.3,0.5,6.7,2.5c-3.9-3-8.4-3.7-8.4-3.7H501.1z"/>
	<path d="M666.7,656.9L572,522.5l-0.5,0.5L665,655.7c1.5,2.4,3.6,4.2,5.9,5.6C669.3,660.1,667.8,658.7,666.7,656.9z"/>
	<path d="M358.1,430.2c25.2,17.3,41.7,46.2,41.7,79c0,52.9-43,95.9-96.1,95.9c-19.4,0-37.5-5.8-52.7-15.7
		c15.5,10.6,34.2,16.8,54.4,16.8c53.1,0,96.1-42.9,96.1-95.9C401.5,476.8,384.3,447.3,358.1,430.2z"/>
	<path d="M146.1,510.4c0-87.6,71.1-158.6,158.8-158.6c32.3,0,62.4,9.7,87.5,26.3c-25.4-17.3-56.1-27.4-89.2-27.4
		c-87.7,0-158.8,71-158.8,158.6c0,55.3,28.3,104,71.3,132.3C173.7,613,146.1,564.9,146.1,510.4z"/>
	<path d="M277,533.1l70.6-71.8c0,0,9.3-7.7,19.5-1.7c-10.8-8-21.2,0.6-21.2,0.6l-70.3,71.5L277,533.1z"/>
	<path d="M265.6,575.9c-0.5-0.4-1-0.8-1.6-1.2l-36-36.5c0,0-9.6-11,2.5-23.8c0,0,10.4-11.2,22.4-4.1c-12.7-9.3-24.1,3-24.1,3
		c-12.1,12.8-2.5,23.8-2.5,23.8l36,36.5C263.4,574.4,264.5,575.2,265.6,575.9z"/>
	<path d="M868.5,463.5c0.4,0.2,0.7,0.5,1.1,0.7c-1.9-1.6-3.8-4.3-5.8-8.2c-2.6-4.8-5.5-8.1-8.9-10.1c0,0-0.1,0-0.1-0.1
		c2.7,2,5.1,5,7.3,9C864.3,459.1,866.5,462,868.5,463.5z"/>
	<path d="M840.5,492.6c14.2,4.7,25.8,9.9,34.6,15.7c-8.7-5.9-20.2-11.4-34.6-16.2V492.6z"/>
	<path d="M822.8,485.6c-4.9-1.8-9-3.8-12.4-6c3.7,2.6,8.4,5,14.1,7.1v-45c-0.6,0.1-1.1,0.3-1.7,0.5V485.6z"/>
	<path d="M822.6,581.5c-5-0.2-9.2-1-12.5-2.5c-0.7-0.3-1.4-0.7-2.2-1.1c1.2,0.9,2.5,1.7,3.9,2.3c3.3,1.5,7.5,2.3,12.5,2.5l0.1-59
		c-0.6-0.2-1.1-0.4-1.7-0.6L822.6,581.5z"/>
	<path d="M856.3,536.7c1.4,1,2.7,2,3.8,3.1c4.8,4.6,7.2,9.8,7.2,15.8c0,6.6-2.5,11.9-7.4,16.2c-4.6,4-11.1,6.7-19.5,8.1v1.4
		c9.2-1.4,16.2-4.2,21.2-8.4c4.9-4.2,7.4-9.6,7.4-16.2c0-5.9-2.4-11.2-7.2-15.8C860.3,539.5,858.4,538,856.3,536.7z"/>
	<path d="M822.8,625.3h1.7v-28.5c-0.6,0-1.1-0.1-1.7-0.1V625.3z"/>
	<path d="M771.9,561.4c-2.7,2.1-4.1,4.7-4.1,7.7c0,5.7,3.4,10.7,10.2,15c-5.7-4-8.5-8.7-8.5-13.8c0-3,1.4-5.6,4.1-7.7
		c2.7-2.1,6.1-3.2,10.1-3.2c3.2,0,6.2,0.8,8.9,2.3c-3.1-2.3-6.6-3.5-10.6-3.5C778,558.3,774.6,559.3,771.9,561.4z"/>
	<path d="M822.8,427.3c-16.1,2.2-28.9,7.6-38.5,16.1c-9.6,8.5-14.4,18.7-14.4,30.6c0,10.6,4.3,19.9,13,27.9c2.5,2.3,5.3,4.5,8.6,6.6
		c-2.5-1.7-4.8-3.5-6.9-5.4c-8.6-7.9-13-17.2-13-27.9c0-11.9,4.8-22.1,14.4-30.6c9.6-8.5,22.4-13.9,38.5-16.1v-20.1h14.3v-1.1h-16
		V427.3z"/>
	<path d="M875.4,435.4c-9.6-5.3-21.2-8.1-34.9-8.7v1.1c14.4,0.4,26.6,3.3,36.6,8.8c1.1,0.6,2.2,1.3,3.2,1.9
		C878.8,437.4,877.2,436.4,875.4,435.4z"/>
</g>
</svg>
