<?xml version="1.0" encoding="utf-8"?>
<!-- Generator: Adobe Illustrator 22.0.0, SVG Export Plug-In . SVG Version: 6.00 Build 0)  -->
<svg version="1.1" id="Layer_1" xmlns="http://www.w3.org/2000/svg" xmlns:xlink="http://www.w3.org/1999/xlink" x="0px" y="0px"
	 viewBox="0 0 216 216" style="enable-background:new 0 0 216 216;" xml:space="preserve">
<path d="M69.7,127h77.6c3.9,0,7.1-3.4,7.1-7.6V63.6c0-4.2-3.2-7.6-7.1-7.6h-5.9V37.9c0-17-14.3-30.9-32-30.9h-1.8
	c-17.6,0-32,13.8-32,30.9v10.9h10.7V37.9c0-11.4,9.6-20.6,21.3-20.6h1.8c11.8,0,21.3,9.2,21.3,20.6V56h-61c-3.9,0-7.1,3.4-7.1,7.6
	v55.8C62.6,123.6,65.8,127,69.7,127z M108.5,77.6c4.7,0,8.6,4.1,8.6,9.2c0,3.3-1.7,6.3-4.1,7.9v10.5c0,2.6-2,4.8-4.4,4.8
	s-4.4-2.1-4.4-4.8V94.6c-2.5-1.6-4.1-4.5-4.1-7.9C99.9,81.7,103.8,77.6,108.5,77.6z M10.1,179c0.8,1.4,2.7,1.9,4.1,1.1l6.8-3.9v7.8
	c0,1.6,1.3,3,3,3s3-1.4,3-3v-7.8l6.8,3.9c1.4,0.8,3.3,0.3,4.1-1.1c0.8-1.4,0.3-3.3-1.1-4.1L30,171l6.8-3.9c1.4-0.8,1.9-2.7,1.1-4.1
	c-0.8-1.4-2.7-1.9-4.1-1.1l-6.8,3.9V158c0-1.7-1.3-3-3-3s-3,1.3-3,3v7.8l-6.8-3.9c-1.4-0.8-3.3-0.3-4.1,1.1
	c-0.8,1.4-0.3,3.3,1.1,4.1L18,171l-6.8,3.9C9.8,175.7,9.3,177.6,10.1,179z M93.9,163c-0.8-1.4-2.7-1.9-4.1-1.1l-6.8,3.9V158
	c0-1.7-1.3-3-3-3s-3,1.3-3,3v7.8l-6.8-3.9c-1.4-0.8-3.3-0.3-4.1,1.1c-0.8,1.4-0.3,3.3,1.1,4.1L74,171l-6.8,3.9
	c-1.4,0.8-1.9,2.7-1.1,4.1c0.8,1.4,2.7,1.9,4.1,1.1l6.8-3.9v7.8c0,1.6,1.3,3,3,3s3-1.4,3-3v-7.8l6.8,3.9c1.4,0.8,3.3,0.3,4.1-1.1
	c0.8-1.4,0.3-3.3-1.1-4.1L86,171l6.8-3.9C94.2,166.3,94.7,164.4,93.9,163z M150.9,163c-0.8-1.4-2.7-1.9-4.1-1.1l-6.8,3.9V158
	c0-1.7-1.3-3-3-3s-3,1.3-3,3v7.8l-6.8-3.9c-1.4-0.8-3.3-0.3-4.1,1.1c-0.8,1.4-0.3,3.3,1.1,4.1l6.8,3.9l-6.8,3.9
	c-1.4,0.8-1.9,2.7-1.1,4.1c0.8,1.4,2.7,1.9,4.1,1.1l6.8-3.9v7.8c0,1.6,1.3,3,3,3s3-1.4,3-3v-7.8l6.8,3.9c1.4,0.8,3.3,0.3,4.1-1.1
	c0.8-1.4,0.3-3.3-1.1-4.1L143,171l6.8-3.9C151.2,166.3,151.7,164.4,150.9,163z M177.1,179c0.8,1.4,2.7,1.9,4.1,1.1l6.8-3.9v7.8
	c0,1.6,1.3,3,3,3s3-1.4,3-3v-7.8l6.8,3.9c1.4,0.8,3.3,0.3,4.1-1.1c0.8-1.4,0.3-3.3-1.1-4.1L197,171l6.8-3.9c1.4-0.8,1.9-2.7,1.1-4.1
	c-0.8-1.4-2.7-1.9-4.1-1.1l-6.8,3.9V158c0-1.7-1.3-3-3-3s-3,1.3-3,3v7.8l-6.8-3.9c-1.4-0.8-3.3-0.3-4.1,1.1
	c-0.8,1.4-0.3,3.3,1.1,4.1l6.8,3.9l-6.8,3.9C176.8,175.7,176.3,177.6,177.1,179z M41.8,198H6.2C5,198,4,199,4,200.2v6.7
	c0,1.2,1,2.2,2.2,2.2h35.7c1.2,0,2.2-1,2.2-2.2v-6.7C44,199,43,198,41.8,198z M97.8,198H62.2c-1.2,0-2.2,1-2.2,2.2v6.7
	c0,1.2,1,2.2,2.2,2.2h35.7c1.2,0,2.2-1,2.2-2.2v-6.7C100,199,99,198,97.8,198z M153.8,198h-35.7c-1.2,0-2.2,1-2.2,2.2v6.7
	c0,1.2,1,2.2,2.2,2.2h35.7c1.2,0,2.2-1,2.2-2.2v-6.7C156,199,155,198,153.8,198z M209.8,198h-35.7c-1.2,0-2.2,1-2.2,2.2v6.7
	c0,1.2,1,2.2,2.2,2.2h35.7c1.2,0,2.2-1,2.2-2.2v-6.7C212,199,211,198,209.8,198z"/>
</svg>
