<?xml version="1.0" encoding="utf-8"?>
<!-- Generator: Adobe Illustrator 22.0.0, SVG Export Plug-In . SVG Version: 6.00 Build 0)  -->
<svg version="1.1" id="Layer_1" xmlns="http://www.w3.org/2000/svg" xmlns:xlink="http://www.w3.org/1999/xlink" x="0px" y="0px"
	 viewBox="0 0 216 216" style="enable-background:new 0 0 216 216;" xml:space="preserve">
<style type="text/css">
	.st0{display:none;fill:#2B9E2D;}
	.st1{fill:#2B9E2D;}
</style>
<path class="st0" d="M107.5,211C49.9,211,3,164.1,3,106.5C3,48.9,49.9,2,107.5,2C165.1,2,212,48.9,212,106.5
	C212,164.1,165.1,211,107.5,211z M107.5,7C52.6,7,8,51.6,8,106.5S52.6,206,107.5,206s99.5-44.6,99.5-99.5S162.4,7,107.5,7z"/>
<path class="st1" d="M107.5,2C49.8,2,3,48.8,3,106.5C3,164.2,49.8,211,107.5,211S212,164.2,212,106.5C212,48.8,165.2,2,107.5,2z
	 M90.2,182c-19.4-30.4-65-53.9-65-53.9l41.5-23.5l19.3,37.3C134.4,52.1,169,41,169,41c-8.3,38.7,2.8,51.1,2.8,51.1
	C140,97.7,90.2,179.2,90.2,182z"/>
</svg>
