<?xml version="1.0" encoding="utf-8"?>
<!-- Generator: Adobe Illustrator 22.0.0, SVG Export Plug-In . SVG Version: 6.00 Build 0)  -->
<svg version="1.1" id="Layer_1" xmlns="http://www.w3.org/2000/svg" xmlns:xlink="http://www.w3.org/1999/xlink" x="0px" y="0px"
	 viewBox="0 0 216 216" style="enable-background:new 0 0 216 216;" xml:space="preserve">
<style type="text/css">
	.st0{fill:#FFFFFF;}
</style>
<path class="st0" d="M137.5,107.5L198,46.9c8-8,8-21,0-29h0c-8-8-21-8-29,0l-60.6,60.6L47.9,18c-8-8-21-8-29,0h0c-8,8-8,21,0,29
	l60.6,60.6L19,168.1c-8,8-8,21,0,29l0,0c8,8,21,8,29,0l60.6-60.6l60.6,60.6c8,8,21,8,29,0l0,0c8-8,8-21,0-29L137.5,107.5z"/>
</svg>
