<?xml version="1.0" encoding="utf-8"?>
<!-- Generator: Adobe Illustrator 22.0.0, SVG Export Plug-In . SVG Version: 6.00 Build 0)  -->
<svg version="1.1" id="Layer_1" xmlns="http://www.w3.org/2000/svg" xmlns:xlink="http://www.w3.org/1999/xlink" x="0px" y="0px"
	 viewBox="0 0 216 216" style="enable-background:new 0 0 216 216;" xml:space="preserve">
<style type="text/css">
	.st0{fill:#003963;}
	.st1{fill:#FFCE34;}
	.st2{fill:#FFFFFF;}
</style>
<g>
	<circle class="st0" cx="108" cy="109" r="100"/>
	<path class="st1" d="M108,14c52.5,0,95,42.5,95,95s-42.5,95-95,95s-95-42.5-95-95S55.5,14,108,14 M108,4C50.1,4,3,51.1,3,109
		s47.1,105,105,105s105-47.1,105-105S165.9,4,108,4L108,4z"/>
</g>
<path class="st2" d="M146.8,60H132v-8h-11.4c-1.3-5.2-6-9-11.6-9s-10.3,3.8-11.6,9H85v8H70.2C64,60,59,65,59,71.2v91.6
	c0,6.2,5,11.2,11.2,11.2h76.6c6.2,0,11.2-5,11.2-11.2V71.2C158,65,153,60,146.8,60z M92,59h10.2c0.8,0,1.5-2.5,1.8-4.2
	c0-0.6,0.1-1.1,0.3-1.6c0.2-0.4,0.4-0.8,0.7-1.2c0.9-1.2,2.4-2,4-2s3.1,0.8,4,2c0.3,0.4,0.5,0.8,0.7,1.2c0,0,0,0,0,0.1
	c0.1,0.3,0.2,0.7,0.3,1c0.4,1.7,1.3,4.7,2,4.7h9v10H92V59z M150,162.8c0,1.8-1.4,3.2-3.2,3.2H70.2c-1.8,0-3.2-1.4-3.2-3.2V71.2
	c0-1.8,1.4-3.2,3.2-3.2H85v8h47v-8h14.8c1.8,0,3.2,1.4,3.2,3.2V162.8z M136.5,100h-16c-2.5,0-4.5,2-4.5,4.5c0,2.5,2,4.5,4.5,4.5h16
	c2.5,0,4.5-2,4.5-4.5C141,102,139,100,136.5,100z M136.5,133h-16c-2.5,0-4.5,2-4.5,4.5c0,2.5,2,4.5,4.5,4.5h16c2.5,0,4.5-2,4.5-4.5
	C141,135,139,133,136.5,133z M107.5,94.5c-1.6-1.6-4.1-1.6-5.7,0l-13.4,13.4l-6.2-6.2c-1.6-1.6-4.1-1.6-5.7,0
	c-1.6,1.6-1.6,4.1,0,5.7l8.7,8.7c0.5,0.5,1,0.8,1.7,1c1.5,0.6,3.2,0.4,4.4-0.8l16-16C109,98.6,109,96,107.5,94.5L107.5,94.5z
	 M107.5,126.5c-1.6-1.6-4.1-1.6-5.7,0l-13.4,13.4l-6.2-6.2c-1.6-1.6-4.1-1.6-5.7,0c-1.6,1.6-1.6,4.1,0,5.7l8.7,8.7
	c0.5,0.5,1,0.8,1.7,1c1.5,0.6,3.2,0.4,4.4-0.8l16-16C109,130.6,109,128,107.5,126.5L107.5,126.5z"/>
</svg>
