<?xml version="1.0" encoding="utf-8"?>
<!-- Generator: Adobe Illustrator 22.0.0, SVG Export Plug-In . SVG Version: 6.00 Build 0)  -->
<svg version="1.1" id="Layer_1" xmlns="http://www.w3.org/2000/svg" xmlns:xlink="http://www.w3.org/1999/xlink" x="0px" y="0px"
	 viewBox="0 0 216 216" style="enable-background:new 0 0 216 216;" xml:space="preserve">
<style type="text/css">
	.st0{fill:none;stroke:#005CFF;stroke-width:5;stroke-miterlimit:10;}
	.st1{fill:none;stroke:#005CFF;stroke-width:10;stroke-miterlimit:10;}
	.st2{fill:#005CFF;}
	.st3{fill:none;stroke:#005CFF;stroke-width:3;stroke-miterlimit:10;}
	.st4{fill:none;stroke:#005CFF;stroke-width:4;stroke-miterlimit:10;}
</style>
<g>
	<path class="st0" d="M96.7,154.2H35.1c-3.1,0-5.6-2.4-5.6-5.2V47.3c0-1.4,0.6-2.8,1.7-3.9l29.2-27.6c1-1,2.4-1.5,3.9-1.5h67.2
		c2.6,0,4.6,1.9,4.6,4.3v99"/>
	<circle class="st1" cx="136.1" cy="155.5" r="29.1"/>
	<path class="st2" d="M192.3,209.8l-1.9,1.9c-1.8,1.8-4.8,1.8-6.7,0l-30.9-30.9c-1.8-1.8-1.8-4.8,0-6.7l1.9-1.9
		c1.8-1.8,4.8-1.8,6.7,0l30.9,30.9C194.2,205,194.2,208,192.3,209.8z"/>
	<path class="st3" d="M163.4,174.2c-2.3,3.3-5.1,6.3-8.4,8.7"/>
	<path class="st4" d="M34.7,45.2h26c2.6,0,4.6-2,4.6-4.5V18.9c0-1.8-2.1-2.7-3.4-1.5L33.5,42.2C32.3,43.3,33.1,45.2,34.7,45.2z"/>
	<path class="st0" d="M137.7,34.5l39,8.6c1.7,0.4,2.8,2,2.4,3.5l-19.5,77.5"/>
	<path class="st2" d="M114.2,71.7H54.6c-1.1,0-2.1-0.9-2.1-2.1v-2.2c0-1.1,0.9-2.1,2.1-2.1h59.6c1.1,0,2.1,0.9,2.1,2.1v2.2
		C116.3,70.8,115.3,71.7,114.2,71.7z"/>
	<path class="st2" d="M114.2,90.7H54.6c-1.1,0-2.1-0.9-2.1-2.1v-2.2c0-1.1,0.9-2.1,2.1-2.1h59.6c1.1,0,2.1,0.9,2.1,2.1v2.2
		C116.3,89.7,115.3,90.7,114.2,90.7z"/>
	<path class="st2" d="M114.2,109.4H54.6c-1.1,0-2.1-0.9-2.1-2.1v-2.2c0-1.1,0.9-2.1,2.1-2.1h59.6c1.1,0,2.1,0.9,2.1,2.1v2.2
		C116.3,108.5,115.3,109.4,114.2,109.4z"/>
	<path class="st2" d="M113.6,121.7H55.1c-1.5,0-2.7,1.2-2.7,2.7v1.1c0,1.5,1.2,2.7,2.7,2.7h54.2c1.7-1.3,4.7-3.8,6.6-5
		C115.5,122.3,114.6,121.7,113.6,121.7z"/>
	<polygon class="st2" points="70.3,155.5 95.1,166.7 96.6,157.6 	"/>
</g>
</svg>
