<?xml version="1.0" encoding="utf-8"?>
<!-- Generator: Adobe Illustrator 22.0.0, SVG Export Plug-In . SVG Version: 6.00 Build 0)  -->
<svg version="1.1" id="Layer_1" xmlns="http://www.w3.org/2000/svg" xmlns:xlink="http://www.w3.org/1999/xlink" x="0px" y="0px"
	 viewBox="0 0 216 216" style="enable-background:new 0 0 216 216;" xml:space="preserve">
<style type="text/css">
	.st0{fill:none;stroke:#010202;stroke-miterlimit:10;}
	.st1{fill:none;stroke:#7E8380;stroke-width:4;stroke-miterlimit:10;}
</style>
<rect class="st0" width="216" height="216"/>
<g>
	<rect x="4.1" y="3.4" class="st1" width="24.4" height="107.2"/>
	<path class="st1" d="M28.4,38.7l18.7-19.9c0.9-1,2.2-1.5,3.6-1.5h21"/>
	<path class="st1" d="M187.9,144.1l-18.7-19.9c-0.9-1-2.2-1.5-3.6-1.5h-21"/>
	<line class="st1" x1="78.9" y1="58" x2="79.1" y2="58"/>
	<path class="st1" d="M28.4,84c0,0,31.2,13.4,45.7,1.7c0,0,1.7-2.4,4.8-5"/>
	<path class="st1" d="M187.4,20.3v61.6c0,4.7-3.8,8.5-8.5,8.5H87.4c-4.7,0-8.5-3.8-8.5-8.5v-1.3c4.1-3.5,10.8-7.4,19.3-6.7l13-0.1
		c1.9,0,3.7-0.8,4.9-2.3c1.8-2.1,3.2-9.5-1.1-12.6c-1-0.7-2.3-1-3.6-1H78.9V20.3c0-4.7,3.8-8.5,8.5-8.5h91.5
		C183.6,11.8,187.4,15.6,187.4,20.3z"/>
	<line class="st1" x1="100.8" y1="28" x2="137.5" y2="28"/>
	<line class="st1" x1="104.8" y1="42.9" x2="121.5" y2="42.9"/>
	<rect x="153.9" y="28.1" class="st1" width="26.9" height="17.6"/>
	<polygon class="st1" points="187.4,213.1 211.5,213.1 212.5,107 188.4,107 	"/>
	<line class="st1" x1="137.4" y1="161" x2="132.2" y2="161"/>
	<path class="st1" d="M187.4,186.7c0,0-30.9,13.2-45.2,1.6c0,0-1.7-2.4-4.8-5"/>
	<path class="st1" d="M100.7,174.4c0.2,0.2,0.4,0.4,0.6,0.6c1.2,1.1,2.7,1.6,4.2,1.6l12.8,0.1c8.4-0.8,15,3.1,19.1,6.6v1.3
		c0,4.7-3.8,8.4-8.4,8.4H38.4c-4.7,0-6.4-2.8-6.4-7.4l1-61c0-4.7,1.8-9.4,6.4-9.4H130c4.7,0,8.4,3.8,8.4,8.4l-1,37.3h-32.1
		c-1.3,0-2.5,0.3-3.6,1C97.5,165,98.9,172.3,100.7,174.4z"/>
	<path class="st1" d="M107.1,154.7c0,2.1-0.2,4.2-0.5,6.3h-1.2c-1.3,0-2.5,0.3-3.6,1c-4.3,3.1-2.9,10.3-1.1,12.4
		c0.2,0.2,0.4,0.4,0.6,0.6c-6.8,10.9-18.9,18.1-32.6,18.1c-21.2,0-36.4-16.2-36.4-37.4c0-21.2,16.2-39.4,37.4-39.4
		C90.9,116.2,107.1,133.5,107.1,154.7z"/>
	<line class="st1" x1="154.7" y1="80.6" x2="162.7" y2="80.6"/>
	<line class="st1" x1="169.4" y1="80.6" x2="177.4" y2="80.6"/>
	<g>
		<path class="st1" d="M57.2,174.2c2.2,4.7,7,8,12.5,8c7.6,0,13.7-6.1,13.7-13.7s-6.2-13.7-13.7-13.7"/>
		<path class="st1" d="M82.1,135.2c-2.2-4.7-7-8-12.5-8c-7.6,0-13.7,6.1-13.7,13.7s6.2,13.7,13.7,13.7"/>
		<line class="st1" x1="69.7" y1="188.2" x2="69.7" y2="182.1"/>
		<line class="st1" x1="69.7" y1="127.2" x2="69.7" y2="121.1"/>
	</g>
</g>
</svg>
