<?xml version="1.0" encoding="utf-8"?>
<!-- Generator: Adobe Illustrator 22.0.0, SVG Export Plug-In . SVG Version: 6.00 Build 0)  -->
<svg version="1.1" id="Layer_1" xmlns="http://www.w3.org/2000/svg" xmlns:xlink="http://www.w3.org/1999/xlink" x="0px" y="0px"
	 viewBox="0 0 216 216" style="enable-background:new 0 0 216 216;" xml:space="preserve">
<style type="text/css">
	.st0{fill:none;stroke:#FFFFFF;stroke-width:4;stroke-miterlimit:10;}
</style>
<path class="st0" d="M28.3,40.8l18.7-19.9c0.9-1,2.2-1.5,3.6-1.5h21"/>
<polygon class="st0" points="28.8,109.8 4.7,109.8 3.7,3.6 27.8,3.6 "/>
<line class="st0" x1="78.8" y1="57.6" x2="84" y2="57.6"/>
<path class="st0" d="M28.8,82.3c0,0,30.9,13.2,45.2,1.6c0,0,2.8-2.3,5.9-4.9"/>
<path class="st0" d="M115.5,71.1c-0.2,0.2-0.4,0.4-0.6,0.6c-1.2,1.1-2.7,1.6-4.2,1.6l-12.8,0.1c-8.4-0.8-15,3.1-19.1,6.6v1.3
	c0,4.7,3.8,8.4,8.4,8.4h90.5c4.7,0,6.4-2.8,6.4-7.4l-1-61c0-4.7-1.8-9.4-6.4-9.4H86.2c-4.7,0-8.4,3.8-8.4,8.4l1,37.3h32.1
	c1.3,0,2.5,0.3,3.6,1C118.7,61.7,117.3,69,115.5,71.1z"/>
<path class="st0" d="M109.1,51.3c0,2.1,0.2,4.2,0.5,6.3h1.2c1.3,0,2.5,0.3,3.6,1c4.3,3.1,2.9,10.3,1.1,12.4
	c-0.2,0.2-0.4,0.4-0.6,0.6c6.8,10.9,18.9,18.1,32.6,18.1c21.2,0,36.4-16.2,36.4-37.4c0-21.2-16.2-39.4-37.4-39.4
	C125.3,12.9,109.1,30.1,109.1,51.3z"/>
<g>
	
		<rect x="189.1" y="105.4" transform="matrix(-1 -4.488022e-11 4.488022e-11 -1 402.4758 318.1137)" class="st0" width="24.4" height="107.2"/>
	<path class="st0" d="M189.1,140.7l-18.7-19.9c-0.9-1-2.2-1.5-3.6-1.5h-21"/>
	<line class="st0" x1="138.6" y1="160" x2="138.4" y2="160"/>
	<path class="st0" d="M189.1,186c0,0-31.2,13.4-45.7,1.7c0,0-1.7-2.4-4.8-5"/>
	<path class="st0" d="M30.1,122.3v61.6c0,4.7,3.8,8.5,8.5,8.5h91.5c4.7,0,8.5-3.8,8.5-8.5v-1.3c-4.1-3.5-10.8-7.4-19.3-6.7l-13-0.1
		c-1.9,0-3.7-0.8-4.9-2.3c-1.8-2.1-3.2-9.5,1.1-12.6c1-0.7,2.3-1,3.6-1h32.4v-37.7c0-4.7-3.8-8.5-8.5-8.5H38.6
		C33.9,113.8,30.1,117.6,30.1,122.3z"/>
	<line class="st0" x1="116.7" y1="130" x2="79.9" y2="130"/>
	<line class="st0" x1="112.7" y1="144.9" x2="96" y2="144.9"/>
	
		<rect x="36.6" y="130.1" transform="matrix(-1 -4.490021e-11 4.490021e-11 -1 100.1585 277.7396)" class="st0" width="26.9" height="17.6"/>
	<line class="st0" x1="62.8" y1="182.6" x2="54.8" y2="182.6"/>
	<line class="st0" x1="48.1" y1="182.6" x2="40.1" y2="182.6"/>
</g>
<g>
	<path class="st0" d="M134.1,70.8c2.2,4.7,7,8,12.5,8c7.6,0,13.7-6.1,13.7-13.7c0-7.6-6.2-13.7-13.7-13.7"/>
	<path class="st0" d="M159,31.8c-2.2-4.7-7-8-12.5-8c-7.6,0-13.7,6.1-13.7,13.7s6.2,13.7,13.7,13.7"/>
	<line class="st0" x1="146.5" y1="84.9" x2="146.5" y2="78.8"/>
	<line class="st0" x1="146.5" y1="23.9" x2="146.5" y2="17.8"/>
</g>
</svg>
