<?xml version="1.0" encoding="utf-8"?>
<!-- Generator: Adobe Illustrator 22.0.0, SVG Export Plug-In . SVG Version: 6.00 Build 0)  -->
<svg version="1.1" id="Layer_1" xmlns="http://www.w3.org/2000/svg" xmlns:xlink="http://www.w3.org/1999/xlink" x="0px" y="0px"
	 viewBox="0 0 216 216" style="enable-background:new 0 0 216 216;" xml:space="preserve">
<style type="text/css">
	.st0{fill:#7F8480;}
</style>
<g>
	<path class="st0" d="M25,155.6l-2.6-2.5l16.8-17.8c1.2-1.2,2.8-1.9,4.5-1.9h18.8v3.6H43.6c-0.7,0-1.4,0.3-1.9,0.8L25,155.6z"/>
</g>
<g>
	<path class="st0" d="M25.9,218H0.8l-0.9-98.7H25L25.9,218z M4.3,214.4h18l-0.9-91.5h-18L4.3,214.4z"/>
</g>
<g>
	<rect x="68.9" y="167.6" class="st0" width="4.7" height="3.6"/>
</g>
<g>
	<path class="st0" d="M49.9,200c-12.6,0-25.7-5.5-26.5-5.9l1.4-3.3c0.3,0.1,26.6,11.2,38.5,1.9c0.5-0.6,2-2.5,4.4-4.6l2.3,2.7
		c-2.5,2.1-3.9,4.1-4,4.1l-0.1,0.2l-0.2,0.2C61.5,198.8,55.8,200,49.9,200z"/>
</g>
<g>
	<path class="st0" d="M157.6,200H76.4c-5.2,0-9.4-4.2-9.4-9.4v-2l0.6-0.5c3.9-3.3,10.2-7,18.3-6.4l11.4-0.1c1,0,1.9-0.4,2.6-1
		l0.1-0.1c0.1-0.1,0.2-0.2,0.3-0.3c0.5-0.6,1.3-2.9,1-5.2c-0.2-1.5-0.8-2.6-1.7-3.3c-0.7-0.5-1.5-0.6-2.1-0.6H67.1l-0.9-35.2
		c0-5.2,4.2-9.4,9.4-9.4h81.1c4.6,0,7.6,4,7.6,10.3l0.9,54.6C165.1,198.5,161,200,157.6,200z M70.7,190.3v0.3c0,3.2,2.6,5.8,5.8,5.8
		h81.1c2.5,0,4-0.8,4-4.9l-0.9-54.6c0-1.1-0.2-6.7-4-6.7H75.6c-3.2,0-5.8,2.6-5.8,5.8l0.8,31.6h27c1.6,0,3.1,0.4,4.2,1.3
		c1.8,1.3,2.9,3.3,3.2,5.8c0.3,2.9-0.5,6.3-1.9,7.9c-0.3,0.3-0.5,0.5-0.7,0.7c-1.3,1.2-3.1,1.9-4.9,1.9l-11.6,0.1l-0.1,0
		C79.3,184.8,74.1,187.6,70.7,190.3z"/>
</g>
<g>
	<path class="st0" d="M130.5,200c-12.6,0-24-6.4-30.7-17l-0.8-1.3l1.2-1c0.1-0.1,0.2-0.2,0.3-0.3c0.5-0.6,1.3-2.9,1-5.2
		c-0.2-1.5-0.8-2.6-1.7-3.3c-0.7-0.5-1.5-0.6-2.1-0.6H95l-0.2-1.5c-0.3-2-0.5-4-0.5-5.9c0-20.3,15.5-36.2,35.3-36.2
		c19.5,0,35.3,16.7,35.3,37.1C164.9,184.8,150.1,200,130.5,200z M103.5,182.2c6.1,8.9,16.1,14.2,27,14.2c17.9,0,30.8-13.3,30.8-31.7
		c0-18.5-14.2-33.5-31.7-33.5c-17.8,0-31.7,14.3-31.7,32.6c0,1.3,0.1,2.6,0.2,3.9c1.4,0.1,2.7,0.5,3.8,1.2c1.8,1.3,2.9,3.3,3.2,5.8
		C105.4,177.3,104.7,180.4,103.5,182.2z"/>
</g>
<g>
	<g>
		<path class="st0" d="M129.6,190.2c-5.5,0-10.5-3.2-12.8-8.2l3.3-1.5c1.7,3.7,5.5,6.1,9.5,6.1c5.8,0,10.5-4.7,10.5-10.5
			c0-5.8-4.7-10.5-10.5-10.5V162c7.8,0,14.1,6.3,14.1,14.1C143.7,183.9,137.4,190.2,129.6,190.2z"/>
	</g>
	<g>
		<path class="st0" d="M129.6,165.6c-7.8,0-14.1-6.3-14.1-14.1c0-7.8,6.3-14.1,14.1-14.1c5.5,0,10.5,3.2,12.8,8.2l-3.3,1.5
			c-1.7-3.7-5.5-6.1-9.5-6.1c-5.8,0-10.5,4.7-10.5,10.5c0,5.8,4.7,10.5,10.5,10.5V165.6z"/>
	</g>
	<g>
		<rect x="127.8" y="188.4" class="st0" width="3.6" height="5.5"/>
	</g>
	<g>
		<rect x="127.8" y="133.7" class="st0" width="3.6" height="5.5"/>
	</g>
</g>
<g>
	<g>
		<path class="st0" d="M148,73.7c-20.4,0-37-16.6-37-37s16.6-37,37-37s37,16.6,37,37S168.4,73.7,148,73.7z M148,3
			c-18.6,0-33.7,15.1-33.7,33.7s15.1,33.7,33.7,33.7c18.6,0,33.7-15.1,33.7-33.7S166.6,3,148,3z"/>
		<path class="st0" d="M148,74c-20.6,0-37.3-16.7-37.3-37.3c0-20.6,16.7-37.3,37.3-37.3c20.6,0,37.3,16.7,37.3,37.3
			C185.3,57.3,168.6,74,148,74z M148-0.1c-20.3,0-36.8,16.5-36.8,36.8c0,20.3,16.5,36.8,36.8,36.8s36.8-16.5,36.8-36.8
			C184.8,16.4,168.3-0.1,148-0.1z M148,70.7c-18.7,0-34-15.2-34-34s15.2-34,34-34c18.7,0,34,15.2,34,34S166.7,70.7,148,70.7z
			 M148,3.2c-18.5,0-33.5,15-33.5,33.5s15,33.5,33.5,33.5s33.5-15,33.5-33.5S166.5,3.2,148,3.2z"/>
	</g>
</g>
<g>
	<path class="st0" d="M203.5,91.7c-1-1.1-2.2-2.2-3.3-3.2c-8.5-7.5-19.6-12-31.8-12h-40.6c-20,0-37.1,12.2-44.5,29.6
		c-0.5,1.1-0.9,2.2-1.2,3.3h3.5c0.4-1.1,0.9-2.2,1.4-3.3c7.1-15.5,22.7-26.2,40.8-26.2h40.6c12.4,0,23.7,5.1,31.8,13.3
		c1.2,1.2,2.3,2.4,3.3,3.7c6.1,7.7,9.8,17.4,9.8,27.9v27.5h-13.1v3.3h16.4v-30.8C216.5,112,211.6,100.4,203.5,91.7z"/>
	<path class="st0" d="M216.8,155.8h-16.9v-3.8H213v-27.2c0-10.2-3.4-19.8-9.7-27.8c-1-1.2-2.1-2.5-3.3-3.7
		c-8.4-8.5-19.7-13.2-31.6-13.2h-40.6c-17.4,0-33.3,10.2-40.6,26.1c-0.5,1.1-1,2.2-1.4,3.3l-0.1,0.2h-4l0.1-0.3
		c0.4-1.1,0.8-2.2,1.3-3.3c7.6-18,25.2-29.7,44.7-29.7h40.6c11.8,0,23.1,4.3,32,12.1c1.2,1,2.3,2.1,3.3,3.2
		c8.5,9,13.1,20.8,13.1,33.2V155.8z M200.4,155.3h15.9v-30.6c0-12.2-4.6-23.9-13-32.8v0c-1-1.1-2.1-2.2-3.3-3.2
		c-8.8-7.7-20-12-31.7-12h-40.6c-19.3,0-36.7,11.5-44.2,29.4c-0.4,1-0.8,2-1.1,3h3c0.4-1.1,0.8-2.1,1.3-3.2
		c7.3-16,23.5-26.4,41.1-26.4h40.6c12.1,0,23.5,4.7,32,13.3c1.2,1.2,2.4,2.5,3.3,3.8c6.4,8.1,9.8,17.8,9.8,28.1v27.7h-13.1V155.3z"
		/>
</g>
</svg>
