<?xml version="1.0" encoding="utf-8"?>
<!-- Generator: Adobe Illustrator 22.0.0, SVG Export Plug-In . SVG Version: 6.00 Build 0)  -->
<svg version="1.1" id="Layer_1" xmlns="http://www.w3.org/2000/svg" xmlns:xlink="http://www.w3.org/1999/xlink" x="0px" y="0px"
	 viewBox="0 0 216 216" style="enable-background:new 0 0 216 216;" xml:space="preserve">
<style type="text/css">
	.st0{fill:none;stroke:#FFFFFF;stroke-width:16;stroke-miterlimit:10;}
	.st1{fill:none;stroke:#FFFFFF;stroke-width:18;stroke-miterlimit:10;}
	.st2{fill:#FFFFFF;stroke:#FFFFFF;stroke-width:4;stroke-miterlimit:10;}
	.st3{font-family:'MyriadPro-Regular';}
	.st4{font-size:54.3185px;}
	.st5{fill:#FFFFFF;}
</style>
<path class="st0" d="M186.3,174.5H75.7c-9.1,0-16.5-7.4-16.5-16.5V28c0-9.1,7.4-16.5,16.5-16.5h110.7c9.1,0,16.5,7.4,16.5,16.5v130
	C202.8,167.1,195.5,174.5,186.3,174.5z"/>
<path class="st1" d="M55,42L17.2,57.7c-5.7,2.4-8.6,8.8-6.5,14.7l43.8,121.2c2.5,6.8,10,10.2,16.7,7.5l67.2-26.6"/>
<text transform="matrix(1 0 0 1 81.0664 80.4199)" class="st2 st3 st4">S</text>
<path class="st5" d="M99,45h-8v-9.3c0-1.5,1.2-2.7,2.7-2.7h2.9c1.3,0,2.4,1.1,2.4,2.4V45z"/>
<path class="st5" d="M99,76h-8v9.3c0,1.5,1.2,2.7,2.7,2.7h2.9c1.3,0,2.4-1.1,2.4-2.4V76z"/>
<path class="st5" d="M171,45h-40c-2.2,0-4-1.8-4-4v0c0-2.2,1.8-4,4-4h40c2.2,0,4,1.8,4,4v0C175,43.2,173.2,45,171,45z"/>
<path class="st5" d="M171,69h-40c-2.2,0-4-1.8-4-4v0c0-2.2,1.8-4,4-4h40c2.2,0,4,1.8,4,4v0C175,67.2,173.2,69,171,69z"/>
<path class="st5" d="M171,92h-40c-2.2,0-4-1.8-4-4v0c0-2.2,1.8-4,4-4h40c2.2,0,4,1.8,4,4v0C175,90.2,173.2,92,171,92z"/>
<path class="st5" d="M171,117H91c-2.2,0-4-1.8-4-4v0c0-2.2,1.8-4,4-4h80c2.2,0,4,1.8,4,4v0C175,115.2,173.2,117,171,117z"/>
<path class="st5" d="M171,141H91c-2.2,0-4-1.8-4-4l0,0c0-2.2,1.8-4,4-4h80c2.2,0,4,1.8,4,4l0,0C175,139.2,173.2,141,171,141z"/>
</svg>
