<?xml version="1.0" encoding="utf-8"?>
<!-- Generator: Adobe Illustrator 22.0.0, SVG Export Plug-In . SVG Version: 6.00 Build 0)  -->
<svg version="1.1" id="Layer_1" xmlns="http://www.w3.org/2000/svg" xmlns:xlink="http://www.w3.org/1999/xlink" x="0px" y="0px"
	 viewBox="0 0 216 216" style="enable-background:new 0 0 216 216;" xml:space="preserve">
<style type="text/css">
	.st0{fill:none;stroke:#B55B9F;stroke-width:4;stroke-miterlimit:10;}
	.st1{fill:#B55B9F;stroke:#B55B9F;stroke-miterlimit:10;}
</style>
<g>
	<line class="st0" x1="160.9" y1="114.5" x2="124.1" y2="114.5"/>
	<g>
		<g>
			<line class="st0" x1="182.7" y1="144.5" x2="182.5" y2="144.5"/>
			<path class="st0" d="M182.7,106.8v47c-12.9-3.2-35.8-6.1-54.6,6.2c-0.1,0.1-0.3,0.2-0.4,0.2c-1,0.5-5.3,2.3-11.8,1.4
				c-0.2,0-0.5,0-0.7-0.1c-2.6-0.1-17.6-0.2-24.5,4.9c-0.3,0.2-0.6,0.5-0.8,0.7c-1.5,1.4-2.4,3.3-2.7,5.3c-0.2,1.3-0.2,2.9,0.5,4.6
				h-5c-4.7,0-8.5-3.8-8.5-8.5v-61.6c0-4.7,3.8-8.5,8.5-8.5h91.5C178.9,98.3,182.7,102.1,182.7,106.8z"/>
			<line class="st0" x1="156.9" y1="129.4" x2="140.1" y2="129.4"/>
		</g>
		
			<rect x="80.8" y="114.6" transform="matrix(-1 -4.490021e-11 4.490021e-11 -1 188.4556 246.766)" class="st0" width="26.9" height="17.6"/>
		<line class="st0" x1="107" y1="167.1" x2="99" y2="167.1"/>
		<line class="st0" x1="92.2" y1="167.1" x2="84.2" y2="167.1"/>
	</g>
</g>
<g>
	<path class="st0" d="M27,39.8L45.8,20c0.9-1,2.2-1.5,3.6-1.5l21,0.1"/>
	<polygon class="st0" points="27.3,108.8 3.2,108.7 2.5,2.6 26.6,2.7 	"/>
	<line class="st0" x1="77.4" y1="56.8" x2="82.6" y2="56.8"/>
	<path class="st0" d="M27.4,82.4c0,0,30.9,13.3,45.2,1.8c0,0,1.7-2.4,4.8-5"/>
	<path class="st0" d="M114.1,70.4c-0.2,0.2-0.4,0.4-0.6,0.6c-1.2,1-2.7,1.6-4.2,1.6l-12.9,0c-8.4-0.8-15,3.1-19.1,6.6l0,1.3
		c0,4.7,3.8,8.5,8.4,8.5l90.5,0.3c4.7,0,6.4-2.8,6.5-7.4l-0.8-61c0-4.7-1.8-9.4-6.4-9.5L85,11.1c-4.7,0-8.5,3.8-8.5,8.4l0.9,37.3
		l32.1,0.1c1.3,0,2.5,0.3,3.6,1C117.3,61,115.9,68.3,114.1,70.4z"/>
	<path class="st0" d="M107.7,50.6c0,2.1,0.2,4.2,0.5,6.3l1.2,0c1.3,0,2.5,0.3,3.6,1c4.2,3.1,2.8,10.4,1.1,12.4
		c-0.2,0.2-0.4,0.4-0.6,0.6c6.8,10.9,18.8,18.1,32.5,18.2c21.2,0.1,36.5-16.1,36.5-37.3c0.1-21.2-16.1-39.5-37.3-39.5
		C124.1,12.2,107.8,29.4,107.7,50.6z"/>
	<g>
		<path class="st0" d="M132.6,70.2c2.2,4.7,6.9,8,12.4,8c7.6,0,13.8-6.1,13.8-13.7c0-7.6-6.1-13.8-13.7-13.8"/>
		<path class="st0" d="M157.7,31.3c-2.2-4.7-6.9-8-12.4-8c-7.6,0-13.8,6.1-13.8,13.7c0,7.6,6.1,13.8,13.7,13.8"/>
		<line class="st0" x1="145.1" y1="84.3" x2="145.1" y2="78.2"/>
		<line class="st0" x1="145.2" y1="23.2" x2="145.3" y2="17.1"/>
	</g>
</g>
<g>
	
		<rect x="198.1" y="148.3" transform="matrix(-1 -4.493973e-11 4.493973e-11 -1 413.2837 347.5662)" class="st1" width="17" height="51"/>
	<path class="st1" d="M192.9,156.9l-0.6,35.8c0,0-4.6-0.1-6.6-0.1c-1.8,0-41,18.2-49.6,22.2c-1.1,0.5-2.3,0.8-3.5,0.8h-3.3
		c-0.4,0-0.8,0-1.2-0.1l-39.3-5.8c-1.5-0.2-2.9-0.8-4.1-1.6l-16.5-10.8c-0.3-0.2-0.7-0.5-1-0.7c-6.6-5.6-7-12.1-6.9-13.9
		c0-0.3,0-0.7-0.1-1c-0.9-5,3.7-9.4,10.5-7.1c7,2.4,16.5,10.9,16.5,10.9c1.2,1.3,13,3,13,3c12.8,2.3,22.1-1.4,23.8-2.1
		c0.2-0.1,0.5-0.2,0.7-0.2c11.5-3.4,8-4.9,8-4.9l-36.2,1.3c-3.5,0.1-6.9-1.6-8.4-4.8c-0.1-0.2-0.2-0.5-0.3-0.7
		c-0.7-1.6-0.7-3.2-0.5-4.6c0.3-2,1.2-3.9,2.7-5.3c0.3-0.3,0.5-0.5,0.8-0.7c6.9-5.1,21.9-4.9,24.5-4.9c0.2,0,0.5,0,0.7,0.1
		c6.5,0.9,10.8-0.9,11.8-1.4c0.1-0.1,0.3-0.1,0.4-0.2c18.7-12.3,41.6-9.4,54.6-6.2C189,155.3,192.9,156.9,192.9,156.9z"/>
</g>
</svg>
