<?xml version="1.0" encoding="utf-8"?>
<!-- Generator: Adobe Illustrator 22.0.0, SVG Export Plug-In . SVG Version: 6.00 Build 0)  -->
<svg version="1.1" id="Layer_1" xmlns="http://www.w3.org/2000/svg" xmlns:xlink="http://www.w3.org/1999/xlink" x="0px" y="0px"
	 viewBox="0 0 216 216" style="enable-background:new 0 0 216 216;" xml:space="preserve">
<style type="text/css">
	.st0{fill:#FFFFFF;}
	.st1{fill:none;stroke:#FFFFFF;stroke-width:21;stroke-miterlimit:10;}
</style>
<path class="st0" d="M166.4,96.5H48.6c-9.7,0-17.6,7.9-17.6,17.6v79.3c0,9.7,7.9,17.6,17.6,17.6h117.8c9.7,0,17.6-7.9,17.6-17.6
	v-79.3C184,104.4,176.1,96.5,166.4,96.5z M118,160.3v21c0,5.4-4.5,9.9-9.9,9.9c-5.4,0-9.9-4.5-9.9-9.9v-21.6
	c-5.9-3.6-9.9-10-9.9-17.5c0-11.2,9.1-20.4,20.4-20.4S129,131,129,142.2C129,150.1,124.5,156.9,118,160.3z"/>
<path class="st1" d="M163.1,166.1V51.2c0-20.6-16.7-37.2-37.2-37.2H89.2c-20.6,0-37.2,16.7-37.2,37.2l-0.6,23.8l0.1,15.4"/>
</svg>
