<?xml version="1.0" encoding="utf-8"?>
<!-- Generator: Adobe Illustrator 22.0.0, SVG Export Plug-In . SVG Version: 6.00 Build 0)  -->
<svg version="1.1" id="Layer_1" xmlns="http://www.w3.org/2000/svg" xmlns:xlink="http://www.w3.org/1999/xlink" x="0px" y="0px"
	 viewBox="0 0 216 216" style="enable-background:new 0 0 216 216;" xml:space="preserve">
<path d="M207.8,211.9H7.2c-2.9,0-5.2-2.3-5.2-5.2c0-2.9,2.4-5.2,5.2-5.2h200.5c2.9,0,5.2,2.3,5.2,5.2
	C213,209.6,210.7,211.9,207.8,211.9z"/>
<path d="M20.9,211.9c-2.9,0-5.2-2.3-5.2-5.2V9.3c0-2.9,2.4-5.2,5.2-5.2s5.2,2.4,5.2,5.2v197.4C26.1,209.6,23.8,211.9,20.9,211.9z"/>
<rect x="115.4" y="47.1" width="10.5" height="159.6"/>
<rect x="188.9" y="96.5" width="10.5" height="110.2"/>
<path d="M120.6,52.4c-0.6,0-1.2-0.1-1.9-0.3L19,14.2c-2.7-1-4.1-4.1-3-6.8c1-2.7,4.1-4.1,6.8-3l99.7,37.8c2.7,1,4.1,4.1,3,6.8
	C124.7,51.1,122.7,52.4,120.6,52.4z"/>
<path d="M194.1,101.7c-0.5,0-1.1-0.1-1.6-0.3L119,77.3c-2.8-0.9-4.3-3.9-3.3-6.6c0.9-2.8,3.9-4.3,6.6-3.3l73.5,24.1
	c2.8,0.9,4.3,3.9,3.3,6.6C198.4,100.3,196.3,101.7,194.1,101.7z"/>
<path d="M59,77.6H45.8c-3.3,0-6-2.7-6-6V71c0-3.3,2.7-6,6-6H59c3.3,0,6,2.7,6,6v0.6C65,74.9,62.3,77.6,59,77.6z"/>
<path d="M59,101.7H45.8c-3.3,0-6-2.7-6-6v-0.6c0-3.3,2.7-6,6-6H59c3.3,0,6,2.7,6,6v0.6C65,99,62.3,101.7,59,101.7z"/>
<path d="M59,126.9H45.8c-3.3,0-6-2.7-6-6v-0.6c0-3.3,2.7-6,6-6H59c3.3,0,6,2.7,6,6v0.6C65,124.2,62.3,126.9,59,126.9z"/>
<path d="M59,152.1H45.8c-3.3,0-6-2.7-6-6v-0.6c0-3.3,2.7-6,6-6H59c3.3,0,6,2.7,6,6v0.6C65,149.4,62.3,152.1,59,152.1z"/>
<path d="M95.7,77.6H82.5c-3.3,0-6-2.7-6-6V71c0-3.3,2.7-6,6-6h13.2c3.3,0,6,2.7,6,6v0.6C101.7,74.9,99,77.6,95.7,77.6z"/>
<path d="M95.7,101.7H82.5c-3.3,0-6-2.7-6-6v-0.6c0-3.3,2.7-6,6-6h13.2c3.3,0,6,2.7,6,6v0.6C101.7,99,99,101.7,95.7,101.7z"/>
<path d="M95.7,126.9H82.5c-3.3,0-6-2.7-6-6v-0.6c0-3.3,2.7-6,6-6h13.2c3.3,0,6,2.7,6,6v0.6C101.7,124.2,99,126.9,95.7,126.9z"/>
<path d="M95.7,152.1H82.5c-3.3,0-6-2.7-6-6v-0.6c0-3.3,2.7-6,6-6h13.2c3.3,0,6,2.7,6,6v0.6C101.7,149.4,99,152.1,95.7,152.1z"/>
<path d="M169.2,126.9h-24.7c-3.3,0-6-2.7-6-6v-0.6c0-3.3,2.7-6,6-6h24.7c3.3,0,6,2.7,6,6v0.6C175.2,124.2,172.5,126.9,169.2,126.9z"
	/>
<path d="M169.2,151h-24.7c-3.3,0-6-2.7-6-6v-0.6c0-3.3,2.7-6,6-6h24.7c3.3,0,6,2.7,6,6v0.6C175.2,148.3,172.5,151,169.2,151z"/>
<path d="M166.6,211.4h-20.1c-4.1,0-7.5-3.4-7.5-7.5v-32.2c0-4.1,3.4-7.5,7.5-7.5h20.1c4.1,0,7.5,3.4,7.5,7.5v32.2
	C174.2,208,170.8,211.4,166.6,211.4z M149.5,200.9h14.2v-26.2h-14.2V200.9z"/>
<path d="M92.6,209.3H47.8c-4.1,0-7.5-3.4-7.5-7.5v-32.2c0-4.1,3.4-7.5,7.5-7.5h44.8c4.1,0,7.5,3.4,7.5,7.5v32.2
	C100.2,205.9,96.8,209.3,92.6,209.3z M50.8,198.8h38.8v-26.2H50.8V198.8z"/>
<rect x="65" y="167.3" width="10.5" height="36.7"/>
</svg>
