<?xml version="1.0" encoding="utf-8"?>
<!-- Generator: Adobe Illustrator 22.0.0, SVG Export Plug-In . SVG Version: 6.00 Build 0)  -->
<svg version="1.1" id="Layer_1" xmlns="http://www.w3.org/2000/svg" xmlns:xlink="http://www.w3.org/1999/xlink" x="0px" y="0px"
	 viewBox="0 0 216 216" style="enable-background:new 0 0 216 216;" xml:space="preserve">
<path d="M108,1.5C49.3,1.5,1.5,49.3,1.5,108c0,32.4,14.5,62.6,39.7,82.9c18.8,15.2,42.6,23.6,66.8,23.6s48-8.4,66.8-23.6
	c25.2-20.3,39.7-50.6,39.7-82.9C214.5,49.3,166.7,1.5,108,1.5z M172.5,182.4c-0.3-30.3-21.4-55.6-49.7-62.2
	c16.7-5.7,28.8-21.6,28.8-40.2c0-23.5-19-42.5-42.5-42.5S66.5,56.5,66.5,80c0,18.4,11.6,34,27.9,39.9c-28.9,6.2-50.7,31.8-50.9,62.5
	c-21.7-18.8-34-45.7-34-74.4C9.5,53.7,53.7,9.5,108,9.5c54.3,0,98.5,44.2,98.5,98.5C206.5,136.8,194.1,163.7,172.5,182.4z"/>
</svg>
