<?xml version="1.0" encoding="utf-8"?>
<!-- Generator: Adobe Illustrator 22.0.0, SVG Export Plug-In . SVG Version: 6.00 Build 0)  -->
<svg version="1.1" id="Layer_1" xmlns="http://www.w3.org/2000/svg" xmlns:xlink="http://www.w3.org/1999/xlink" x="0px" y="0px"
	 viewBox="0 0 216 216" style="enable-background:new 0 0 216 216;" xml:space="preserve">
<style type="text/css">
	.st0{fill:none;stroke:#000000;stroke-miterlimit:10;}
	.st1{fill:#FF0000;}
</style>
<g>
	<g>
		<path class="st1" d="M176.5,67.8l-138-37.8l2.9-10.6c2.4-8.8,11.5-14,20.3-11.6l23.7,6.5C88.1,4.7,98.2-1,107.9,1.6l26.4,7.2
			c9.7,2.7,15.5,12.7,12.8,22.4l20.7,5.7c4.3,1.2,7.8,3.9,10,7.8c2.2,3.8,2.7,8.3,1.6,12.5L176.5,67.8z M48,24.7l123.2,33.7l0.9-3.1
			c0.6-2.3,0.3-4.7-0.8-6.7c-1.2-2.1-3.1-3.5-5.3-4.1l-28.1-7.7l2-7.4c1.5-5.6-1.8-11.5-7.4-13L105.9,9c-5.6-1.5-11.5,1.8-13,7.4
			l-2,7.4l-31.1-8.5c-4.7-1.3-9.6,1.5-10.9,6.2L48,24.7z"/>
	</g>
	<g>
		<path class="st1" d="M132.7,34.5l-36.6-10l2.6-9.4c0.8-2.8,3.6-4.4,6.4-3.6l26.6,7.3c1.3,0.4,2.5,1.2,3.1,2.4
			c0.7,1.2,0.9,2.6,0.5,4L132.7,34.5z M104.5,19.7l23.4,6.4l0.3-1.2l-23.4-6.4L104.5,19.7z"/>
	</g>
	<g>
		<path class="st1" d="M158.2,216H57.8c-11,0-19.9-8.9-19.9-19.9L36,59.4H178v136.8C178,207.1,169.1,216,158.2,216z M43.8,67
			l1.9,129c0,6.8,5.5,12.3,12.2,12.3h100.3c6.7,0,12.2-5.5,12.2-12.2V67H43.8z"/>
	</g>
	<g>
		<path class="st1" d="M70.3,184.8c-6.4,0-11.5-5.2-11.5-11.5v-74c0-6.4,5.2-11.5,11.5-11.5c3.1,0,5.9,1.2,8.1,3.4
			c2.2,2.2,3.4,5.1,3.4,8.2v74C81.8,179.6,76.7,184.8,70.3,184.8z M70.3,95.5c-2.1,0-3.8,1.7-3.8,3.8v74c0,2.1,1.7,3.8,3.8,3.8
			s3.8-1.7,3.8-3.8v-74c0-1-0.4-2-1.1-2.7C72.3,95.9,71.3,95.5,70.3,95.5z"/>
	</g>
	<g>
		<path class="st1" d="M108,184.8c-6.4,0-11.5-5.2-11.5-11.5v-74c0-6.4,5.2-11.5,11.5-11.5c3.1,0,5.9,1.2,8.1,3.4
			c2.2,2.2,3.4,5.1,3.4,8.2v74C119.5,179.6,114.3,184.8,108,184.8z M108,95.5c-2.1,0-3.8,1.7-3.8,3.8v74c0,2.1,1.7,3.8,3.8,3.8
			c2.1,0,3.8-1.7,3.8-3.8v-74c0-1-0.4-2-1.1-2.7C110,95.9,109,95.5,108,95.5z"/>
	</g>
	<g>
		<path class="st1" d="M145.7,184.8c-6.4,0-11.5-5.2-11.5-11.5v-74c0-6.4,5.2-11.5,11.5-11.5c3.1,0,5.9,1.2,8.1,3.4
			c2.2,2.2,3.4,5.1,3.4,8.2v74C157.2,179.6,152,184.8,145.7,184.8z M145.7,95.5c-2.1,0-3.8,1.7-3.8,3.8v74c0,2.1,1.7,3.8,3.8,3.8
			c2.1,0,3.8-1.7,3.8-3.8v-74c0-1-0.4-2-1.1-2.7C147.7,95.9,146.7,95.5,145.7,95.5z"/>
	</g>
</g>
</svg>
