<?xml version="1.0" encoding="utf-8"?>
<!-- Generator: Adobe Illustrator 22.0.0, SVG Export Plug-In . SVG Version: 6.00 Build 0)  -->
<svg version="1.1" id="Layer_1" xmlns="http://www.w3.org/2000/svg" xmlns:xlink="http://www.w3.org/1999/xlink" x="0px" y="0px"
	 viewBox="0 0 216 216" style="enable-background:new 0 0 216 216;" xml:space="preserve">
<path d="M107,108.8c-29.1,0-52.8-23.7-52.8-52.8S77.9,3.3,107,3.3c29.1,0,52.8,23.7,52.8,52.8S136.1,108.8,107,108.8z M107,13.8
	c-23.3,0-42.3,19-42.3,42.3s19,42.3,42.3,42.3s42.3-19,42.3-42.3S130.3,13.8,107,13.8z"/>
<path d="M25.5,186.8c-12.3,0-22.3-10-22.3-22.3s10-22.3,22.3-22.3s22.3,10,22.3,22.3S37.8,186.8,25.5,186.8z M25.5,152.8
	c-6.5,0-11.8,5.3-11.8,11.8s5.3,11.8,11.8,11.8s11.8-5.3,11.8-11.8S32,152.8,25.5,152.8z"/>
<rect x="103" y="105" width="9" height="41"/>
<path d="M185.8,118H27.2c-3.9,0-7.2,3.2-7.2,7.2V146h10v-18h153v18h10v-20.8C193,121.2,189.8,118,185.8,118z"/>
<path d="M40.3,214.8H11.7c-4.1,0-7.4-3.3-7.4-7.4v-8.8c0-1.8,0.2-3.6,0.6-5.4c0.3-1.4,0.8-2.7,1.4-4V189l0.6-1.1
	c3.8-7.2,11.2-11.7,19.1-11.7s15.3,4.5,19.1,11.7l0.6,1.2c0.6,1.3,1,2.6,1.4,4c0.4,1.7,0.6,3.5,0.6,5.4v8.8
	C47.8,211.4,44.4,214.8,40.3,214.8z M14.8,204.3h22.5v-5.8c0-1.9-0.4-3.8-1.3-5.5l-0.2-0.4c-2-3.6-5.7-5.8-9.7-5.8s-7.7,2.3-9.8,5.9
	l-0.2,0.4c-0.8,1.6-1.3,3.5-1.3,5.4V204.3z"/>
<path d="M107.5,186.8c-12.3,0-22.3-10-22.3-22.3s10-22.3,22.3-22.3s22.3,10,22.3,22.3S119.8,186.8,107.5,186.8z M107.5,152.8
	c-6.5,0-11.8,5.3-11.8,11.8s5.3,11.8,11.8,11.8c6.5,0,11.8-5.3,11.8-11.8S114,152.8,107.5,152.8z"/>
<path d="M122.3,214.8H93.7c-4.1,0-7.4-3.3-7.4-7.4v-8.8c0-1.8,0.2-3.6,0.6-5.4c0.3-1.4,0.8-2.7,1.4-4V189l0.6-1.1
	c3.8-7.2,11.2-11.7,19.1-11.7c8,0,15.3,4.5,19.2,11.7l0.6,1.2c0.6,1.3,1,2.6,1.4,4c0.4,1.7,0.6,3.5,0.6,5.4v8.8
	C129.8,211.4,126.4,214.8,122.3,214.8z M96.8,204.3h22.5v-5.8c0-1.9-0.4-3.8-1.3-5.5l-0.2-0.4c-2-3.6-5.7-5.9-9.7-5.9
	c-4,0-7.7,2.3-9.8,5.9l-0.2,0.4c-0.8,1.6-1.3,3.5-1.3,5.4V204.3z"/>
<path d="M188.5,186.8c-12.3,0-22.3-10-22.3-22.3s10-22.3,22.3-22.3s22.3,10,22.3,22.3S200.8,186.8,188.5,186.8z M188.5,152.8
	c-6.5,0-11.8,5.3-11.8,11.8s5.3,11.8,11.8,11.8s11.8-5.3,11.8-11.8S195,152.8,188.5,152.8z"/>
<path d="M203.3,214.8h-28.7c-4.1,0-7.4-3.3-7.4-7.4v-8.8c0-1.8,0.2-3.6,0.6-5.4c0.3-1.4,0.8-2.7,1.4-4V189l0.6-1.1
	c3.8-7.2,11.2-11.7,19.2-11.7s15.3,4.5,19.2,11.7l0.6,1.2c0.6,1.3,1,2.6,1.4,4c0.4,1.7,0.6,3.5,0.6,5.4v8.8
	C210.8,211.4,207.4,214.8,203.3,214.8z M177.8,204.3h22.5v-5.8c0-1.9-0.4-3.8-1.3-5.5l-0.2-0.4c-2-3.6-5.7-5.9-9.7-5.9
	s-7.7,2.3-9.8,5.9l-0.2,0.4c-0.8,1.6-1.3,3.5-1.3,5.4V204.3z"/>
<path d="M107.5,60.8c-12.3,0-22.3-10-22.3-22.3s10-22.3,22.3-22.3s22.3,10,22.3,22.3S119.8,60.8,107.5,60.8z M107.5,26.8
	c-6.5,0-11.8,5.3-11.8,11.8s5.3,11.8,11.8,11.8c6.5,0,11.8-5.3,11.8-11.8S114,26.8,107.5,26.8z"/>
<path d="M122.3,88.8H93.7c-4.1,0-7.4-3.3-7.4-7.4v-8.8c0-1.8,0.2-3.6,0.6-5.4c0.3-1.4,0.8-2.7,1.4-4V63l0.6-1.1
	c3.8-7.2,11.2-11.7,19.1-11.7c8,0,15.3,4.5,19.2,11.7l0.6,1.2c0.6,1.3,1,2.6,1.4,4c0.4,1.7,0.6,3.5,0.6,5.4v8.8
	C129.8,85.4,126.4,88.8,122.3,88.8z M96.8,78.3h22.5v-5.8c0-1.9-0.4-3.8-1.3-5.5l-0.2-0.4c-2-3.6-5.7-5.9-9.7-5.9
	c-4,0-7.7,2.3-9.8,5.9L98,67.1c-0.8,1.6-1.3,3.5-1.3,5.4V78.3z"/>
</svg>
