<?xml version="1.0" encoding="utf-8"?>
<!-- Generator: Adobe Illustrator 22.0.0, SVG Export Plug-In . SVG Version: 6.00 Build 0)  -->
<svg version="1.1" id="Layer_1" xmlns="http://www.w3.org/2000/svg" xmlns:xlink="http://www.w3.org/1999/xlink" x="0px" y="0px"
	 viewBox="0 0 216 216" style="enable-background:new 0 0 216 216;" xml:space="preserve">
<path d="M142.5,63.5c-2.8,0-5-2.2-5-5l0-0.5c0.1-6.4-0.8-22.3-10.7-32.4c-6-6.1-14.5-9.1-25.3-9.1c-10.8,0-19.4,3.2-25.5,9.5
	C64.3,37.9,64.5,57.2,64.5,57.4c0,2.8-2.1,5-4.9,5.1c-2.7,0.1-5-2.1-5.1-4.9c0-1-0.3-23.6,14.3-38.6c8.1-8.3,19.1-12.5,32.7-12.5
	c13.6,0,24.5,4.1,32.5,12.1c12.1,12.3,13.7,30.1,13.5,39.6l0,0.3C147.5,61.3,145.3,63.5,142.5,63.5z"/>
<path d="M100.3,126.5l-0.4,0c-29.5-3.6-38-26.9-38.4-38.8l0-0.2V58.1l0.1-0.4c2.2-13.3,12.6-17.1,16-18.4c0.3-0.1,0.5-0.2,0.7-0.3
	l0.4-0.2c7.5-2.8,13.5,0.5,18.4,3.2c2,1.1,4,2.2,5.7,2.7c3.5,1,8.1-2.7,9.1-3.7c2-2,5.1-2,7.1,0c0.3,0.3,0.5,0.6,0.7,0.9
	c0.7-2.1,2.8-3.6,5.2-3.4c12,1.1,16.1,13.5,16.5,20.6l0,0.3v32c0,5.5-7.1,33.9-40.8,35L100.3,126.5z M71.5,87.4
	c0.1,1.7,1.8,25.6,29.2,29.1c27.9-1.1,30.8-24.8,30.8-25l0-31.7c-0.1-1.2-1.3-10.7-7.5-11.2c-1.6-0.1-3-1.1-3.8-2.4
	c-0.2,0.7-0.6,1.4-1.2,1.9c-0.9,0.9-9.4,9-18.9,6.3c-2.9-0.8-5.4-2.2-7.8-3.5c-4.3-2.4-6.9-3.7-9.9-2.6c-0.4,0.2-0.9,0.3-1.3,0.5
	c-4,1.5-8.3,3.6-9.6,10.3V87.4z"/>
<path d="M65.5,85.5h-6.4c-4.7,0-8.6-3.9-8.6-8.6V63.1c0-4.7,3.9-8.6,8.6-8.6h6.4c2.8,0,5,2.2,5,5s-2.2,5-5,5h-5v11h5
	c2.8,0,5,2.2,5,5S68.3,85.5,65.5,85.5z"/>
<path d="M144.9,85.5h-6.4c-2.8,0-5-2.2-5-5s2.2-5,5-5h5v-11h-5c-2.8,0-5-2.2-5-5s2.2-5,5-5h6.4c4.7,0,8.6,3.9,8.6,8.6v13.8
	C153.5,81.6,149.6,85.5,144.9,85.5z M144.9,64.5L144.9,64.5L144.9,64.5z"/>
<path d="M84.5,113.5v23.4l-3.2,1.3c-1.9,0.8-4.5,1.8-7.5,3c-2.9,1.1-6.1,2.5-9.4,3.8c-9.4,3.9-19.3,8.1-22.5,9.9
	c-8,4.6-15.5,10.5-15.5,22.7v31c0,2.8-2.2,5-5,5s-5-2.2-5-5v-31c0-19.6,14.4-27.8,20.5-31.3c4.1-2.4,16.4-7.5,26.4-11.6
	c0.9-0.4,1.7-0.7,2.6-1c3.4-1.4,6.4-2.6,8.5-3.4v-16.6c0-2.8,2.2-5,5-5S84.5,110.7,84.5,113.5z"/>
<path d="M186.5,206.5v1.5c0,1.4-0.5,2.6-1.4,3.5h-7.2c-0.9-0.9-1.4-2.1-1.4-3.5v-1.5c0-2.8,2.2-5,5-5S186.5,203.7,186.5,206.5z"/>
<path d="M179.6,171.5c-2,0-3.9-1.2-4.7-3.2c-2.6-6.6-8.2-10.5-13.9-13.7c-5.5-3.1-30.3-12.9-39.4-16.4l-3.2-1.2V114c0-2.8,2.2-5,5-5
	s5,2.2,5,5v16.2c8.6,3.3,31.5,12.4,37.4,15.7c4.6,2.6,14.1,7.9,18.3,18.7c1,2.6-0.2,5.5-2.8,6.5
	C180.9,171.4,180.2,171.5,179.6,171.5z"/>
<path d="M101.5,157.5c-1.1,0-2.2-0.3-3.1-1.1l-23-18c-2.2-1.7-2.6-4.8-0.9-7c1.7-2.2,4.8-2.6,7-0.9l23,18c2.2,1.7,2.6,4.8,0.9,7
	C104.5,156.8,103,157.5,101.5,157.5z"/>
<path d="M101.5,157.5c-1.5,0-3-0.7-3.9-1.9c-1.7-2.2-1.3-5.3,0.9-7l23-18c2.2-1.7,5.3-1.3,7,0.9c1.7,2.2,1.3,5.3-0.9,7l-23,18
	C103.7,157.2,102.6,157.5,101.5,157.5z"/>
<path d="M86,171.8c-0.8,0.5-1.7,0.7-2.5,0.7c-1.7,0-3.4-0.9-4.3-2.5l-14.7-25.1l-2.3-3.9c-1.3-2.2-0.7-4.9,1.2-6.5
	c0.9-0.4,1.7-0.7,2.6-1c1.9-0.2,3.8,0.7,4.8,2.4l3,5.2l14,23.8C89.2,167.3,88.4,170.4,86,171.8z"/>
<path d="M83.5,172.5c-1.4,0-2.9-0.6-3.8-1.8c-1.8-2.1-1.5-5.3,0.6-7l18-15c2.1-1.8,5.3-1.5,7,0.6c1.8,2.1,1.5,5.3-0.6,7l-18,15
	C85.8,172.1,84.6,172.5,83.5,172.5z"/>
<path d="M139.6,134.6c1.9,1.5,2.4,4.3,1.2,6.4l-2.3,3.9L123.8,170c-0.9,1.6-2.6,2.5-4.3,2.5c-0.9,0-1.7-0.2-2.5-0.7
	c-2.4-1.4-3.2-4.5-1.8-6.8l13.9-23.8l3.1-5.2c1-1.7,2.9-2.6,4.7-2.4L139.6,134.6z"/>
<path d="M119.5,172.5c-1.1,0-2.3-0.4-3.2-1.2l-18-15c-2.1-1.8-2.4-4.9-0.6-7s4.9-2.4,7-0.6l18,15c2.1,1.8,2.4,4.9,0.6,7
	C122.4,171.9,120.9,172.5,119.5,172.5z"/>
<path d="M89.5,213.5c-0.3,0-0.7,0-1.1-0.1c-2.7-0.6-4.4-3.2-3.8-5.9l12-56c0.6-2.7,3.2-4.4,5.9-3.8c2.7,0.6,4.4,3.2,3.8,5.9l-12,56
	C93.9,211.9,91.8,213.5,89.5,213.5z"/>
<path d="M113.5,213.5c-2.3,0-4.4-1.6-4.9-4l-12-56c-0.6-2.7,1.1-5.4,3.8-5.9c2.7-0.6,5.4,1.1,5.9,3.8l12,56c0.6,2.7-1.1,5.4-3.8,5.9
	C114.2,213.5,113.8,213.5,113.5,213.5z"/>
<path d="M53.5,213.5c-2.8,0-5-2.2-5-5v-24c0-2.8,2.2-5,5-5s5,2.2,5,5v24C58.5,211.3,56.3,213.5,53.5,213.5z"/>
<path d="M192.9,161.5h-52.8c-4.7,0-8.6,3.9-8.6,8.6v32.8c0,4.7,3.9,8.6,8.6,8.6h52.8c4.7,0,8.6-3.9,8.6-8.6v-32.8
	C201.5,165.4,197.6,161.5,192.9,161.5z M191.5,201.5h-50v-30h50V201.5z"/>
<circle cx="149" cy="178" r="4"/>
<circle cx="149" cy="193" r="4"/>
<circle cx="160" cy="178" r="4"/>
<circle cx="160" cy="193" r="4"/>
<circle cx="172" cy="178" r="4"/>
<circle cx="172" cy="193" r="4"/>
<circle cx="184" cy="178" r="4"/>
<circle cx="184" cy="193" r="4"/>
</svg>
