<?xml version="1.0" encoding="utf-8"?>
<!-- Generator: Adobe Illustrator 22.0.0, SVG Export Plug-In . SVG Version: 6.00 Build 0)  -->
<svg version="1.1" id="Layer_1" xmlns="http://www.w3.org/2000/svg" xmlns:xlink="http://www.w3.org/1999/xlink" x="0px" y="0px"
	 viewBox="0 0 216 216" style="enable-background:new 0 0 216 216;" xml:space="preserve">
<style type="text/css">
	.st0{fill:#0C0F3A;}
</style>
<path class="st0" d="M205.5,75c-4.1,0-7.5,3.4-7.5,7.5v90c0,14.1-11.4,25.5-25.5,25.5h-129C29.4,198,18,186.6,18,172.5v-129
	C18,29.4,29.4,18,43.5,18h86c4.1,0,7.5-3.4,7.5-7.5S133.6,3,129.5,3h-86C21.1,3,3,21.1,3,43.5v129C3,194.9,21.1,213,43.5,213h129
	c22.4,0,40.5-18.1,40.5-40.5v-90C213,78.4,209.6,75,205.5,75z M48.9,128.2l-10,36.9c-1,3.5,0,7.2,2.6,9.8c2.6,2.6,6.2,3.6,9.7,2.6
	l37-9.8c1.8,0.1,3.6-0.5,5-1.9l118-117.3c2.5-2.5,2.6-6.6,0.2-9L177.9,5.8c-2.5-2.5-6.5-2.4-9,0.1l-118,117.3
	C49.5,124.6,48.8,126.4,48.9,128.2z M168.1,24.5c2.5-2.5,6.6-2.6,9-0.1l15.7,15.8c2.5,2.5,2.4,6.5-0.2,9l-11.1,11.1l-24.6-24.8
	L168.1,24.5z M146.6,45.8l24.6,24.8l-86.8,86.3l-0.1-0.1l-33.4,8.8l9-33.4l-0.1-0.1L146.6,45.8z"/>
</svg>
