<?xml version="1.0" encoding="utf-8"?>
<!-- Generator: Adobe Illustrator 22.0.0, SVG Export Plug-In . SVG Version: 6.00 Build 0)  -->
<svg version="1.1" id="Layer_1" xmlns="http://www.w3.org/2000/svg" xmlns:xlink="http://www.w3.org/1999/xlink" x="0px" y="0px"
	 viewBox="0 0 216 216" style="enable-background:new 0 0 216 216;" xml:space="preserve">
<style type="text/css">
	.st0{fill:#7F8480;}
</style>
<g>
	<g>
		<path class="st0" d="M138.2,191H0.1v-42c0-22.1,18-40.1,40.1-40.1H98c22.1,0,40.1,18,40.1,40.1V191z M4.1,187h130.1v-38
			c0-19.9-16.2-36.1-36.1-36.1H40.2c-19.9,0-36.1,16.2-36.1,36.1V187z"/>
	</g>
	<g>
		<path class="st0" d="M69.1,105.5c-21.1,0-38.3-17.2-38.3-38.3S48,29,69.1,29s38.3,17.2,38.3,38.3S90.2,105.5,69.1,105.5z M69.1,33
			c-18.9,0-34.3,15.4-34.3,34.3s15.4,34.3,34.3,34.3s34.3-15.4,34.3-34.3S88,33,69.1,33z"/>
	</g>
</g>
<g>
	<g>
		<path class="st0" d="M216.8,169.6h-54.1V153c0-8.7,7.1-15.8,15.8-15.8H201c8.7,0,15.8,7.1,15.8,15.8V169.6z M164.7,167.6h50.1V153
			c0-7.6-6.2-13.8-13.8-13.8h-22.5c-7.6,0-13.8,6.2-13.8,13.8V167.6z"/>
	</g>
	<g>
		<path class="st0" d="M189.8,136.3c-8.3,0-15.1-6.8-15.1-15.1c0-8.3,6.8-15.1,15.1-15.1c8.3,0,15.1,6.8,15.1,15.1
			C204.9,129.5,198.1,136.3,189.8,136.3z M189.8,108.1c-7.2,0-13.1,5.9-13.1,13.1c0,7.2,5.9,13.1,13.1,13.1
			c7.2,0,13.1-5.9,13.1-13.1C202.9,114,197,108.1,189.8,108.1z"/>
	</g>
</g>
<g>
	<g>
		<g>
			<path class="st0" d="M70.5,169.9c-3.5,0-6.8-2.1-8.3-5.3l3.6-1.7c0.8,1.8,2.7,3,4.6,3c2.8,0,5.1-2.3,5.1-5.1
				c0-2.8-2.3-5.1-5.1-5.1v-4c5,0,9.1,4.1,9.1,9.1C79.6,165.8,75.5,169.9,70.5,169.9z"/>
		</g>
		<g>
			<path class="st0" d="M70.5,155.7c-5,0-9.1-4.1-9.1-9.1c0-5,4.1-9.1,9.1-9.1c3.5,0,6.8,2.1,8.3,5.3l-3.6,1.7c-0.8-1.8-2.7-3-4.6-3
				c-2.8,0-5.1,2.3-5.1,5.1c0,2.8,2.3,5.1,5.1,5.1V155.7z"/>
		</g>
		<g>
			<rect x="68.5" y="167.9" class="st0" width="4" height="3.2"/>
		</g>
		<g>
			<rect x="68.5" y="136.3" class="st0" width="4" height="3.2"/>
		</g>
	</g>
	<g>
		<path class="st0" d="M100.6,180.7h-61c-5.2,0-9.4-4.2-9.4-9.4V136c0-5.2,4.2-9.4,9.4-9.4h61c5.2,0,9.4,4.2,9.4,9.4v35.3
			C110.1,176.5,105.8,180.7,100.6,180.7z M39.6,130.6c-3,0-5.4,2.4-5.4,5.4v35.3c0,3,2.4,5.4,5.4,5.4h61c3,0,5.4-2.4,5.4-5.4V136
			c0-3-2.4-5.4-5.4-5.4H39.6z"/>
	</g>
	<g>
		<path class="st0" d="M70.5,175.1c-11.8,0-21.4-9.6-21.4-21.4s9.6-21.4,21.4-21.4s21.4,9.6,21.4,21.4S82.3,175.1,70.5,175.1z
			 M70.5,136.3c-9.6,0-17.4,7.8-17.4,17.4s7.8,17.4,17.4,17.4s17.4-7.8,17.4-17.4S80.1,136.3,70.5,136.3z"/>
	</g>
</g>
<g>
	<g>
		<g>
			<path class="st0" d="M191.6,161.7c-1.5,0-2.9-0.9-3.5-2.2l1.8-0.8c0.3,0.7,1,1.1,1.7,1.1c1,0,1.9-0.8,1.9-1.9
				c0-1-0.8-1.9-1.9-1.9v-2c2.1,0,3.9,1.7,3.9,3.9C195.5,160,193.7,161.7,191.6,161.7z"/>
		</g>
		<g>
			<path class="st0" d="M191.6,156c-2.1,0-3.9-1.7-3.9-3.9c0-2.1,1.7-3.9,3.9-3.9c1.5,0,2.9,0.9,3.5,2.2l-1.8,0.8
				c-0.3-0.7-1-1.1-1.7-1.1c-1,0-1.9,0.8-1.9,1.9c0,1,0.8,1.9,1.9,1.9V156z"/>
		</g>
		<g>
			<rect x="190.6" y="160.7" class="st0" width="2" height="1.3"/>
		</g>
		<g>
			<rect x="190.6" y="148" class="st0" width="2" height="1.3"/>
		</g>
	</g>
	<g>
		<path class="st0" d="M203.8,166.1h-24.7c-2.2,0-4-1.8-4-4v-14.3c0-2.2,1.8-4,4-4h24.7c2.2,0,4,1.8,4,4v14.3
			C207.8,164.3,206,166.1,203.8,166.1z M179.1,145.8c-1.1,0-2,0.9-2,2v14.3c0,1.1,0.9,2,2,2h24.7c1.1,0,2-0.9,2-2v-14.3
			c0-1.1-0.9-2-2-2H179.1z"/>
	</g>
	<g>
		<path class="st0" d="M191.6,163.8c-4.9,0-8.9-4-8.9-8.9c0-4.9,4-8.9,8.9-8.9c4.9,0,8.9,4,8.9,8.9
			C200.5,159.9,196.5,163.8,191.6,163.8z M191.6,148.1c-3.8,0-6.9,3.1-6.9,6.9s3.1,6.9,6.9,6.9s6.9-3.1,6.9-6.9
			S195.4,148.1,191.6,148.1z"/>
	</g>
</g>
<g>
	<g>
		<path class="st0" d="M172.2,86.5c-13.4-17.1-31.9-30-53.3-36.2c-0.7-0.2-1.3-0.4-2-0.5v2.1c0.7,0.2,1.3,0.4,2,0.6
			c21.6,6.4,40.3,19.7,53.3,37.5c0.7,0.9,1.3,1.9,2,2.8v-3.5C173.5,88.2,172.8,87.4,172.2,86.5z"/>
		<path class="st0" d="M174.7,94.2l-0.9-1.3c-0.6-0.9-1.3-1.9-2-2.8c-13.1-17.8-32-31-53.1-37.3c-0.7-0.2-1.3-0.4-2-0.6l-0.4-0.1
			v-3.1l0.6,0.2c0.7,0.2,1.3,0.4,2,0.6c21,6.1,40,19,53.6,36.4l0,0c0.7,0.9,1.4,1.8,2,2.7l0.1,0.1V94.2z M117.3,51.4
			c0.6,0.2,1.1,0.3,1.6,0.5c21.3,6.3,40.3,19.7,53.6,37.6c0.4,0.5,0.7,1,1.1,1.5v-1.7c-0.6-0.8-1.3-1.7-1.9-2.5
			c-13.4-17.2-32.3-30-53.1-36c-0.4-0.1-0.9-0.3-1.4-0.4V51.4z"/>
	</g>
</g>
<g>
	<polyline class="st0" points="174.2,80.2 175.2,93.8 161.2,88.5 	"/>
	<polygon class="st0" points="175.7,94.6 161,89 161.3,88 174.6,93.1 173.7,80.2 174.7,80.1 	"/>
</g>
</svg>
