<?xml version="1.0" encoding="utf-8"?>
<!-- Generator: Adobe Illustrator 22.0.0, SVG Export Plug-In . SVG Version: 6.00 Build 0)  -->
<svg version="1.1" id="Layer_1" xmlns="http://www.w3.org/2000/svg" xmlns:xlink="http://www.w3.org/1999/xlink" x="0px" y="0px"
	 viewBox="0 0 216 216" style="enable-background:new 0 0 216 216;" xml:space="preserve">
<style type="text/css">
	.st0{fill:none;stroke:#7E8380;stroke-width:4;stroke-miterlimit:10;}
	.st1{fill:#7E8380;}
</style>
<rect x="2.6" y="3.1" class="st0" width="23.6" height="103.7"/>
<path class="st0" d="M26.2,37.2L44.3,18c0.9-0.9,2.1-1.5,3.4-1.5h20.3"/>
<line class="st0" x1="75" y1="55.9" x2="75.2" y2="55.9"/>
<path class="st0" d="M26.2,81c0,0,30.2,12.9,44.2,1.6c0,0,1.6-2.3,4.6-4.9"/>
<path class="st0" d="M180.1,19.4V79c0,4.6-3.7,8.3-8.3,8.3H83.3c-4.6,0-8.3-3.7-8.3-8.3v-1.3c4-3.4,10.4-7.2,18.6-6.5l12.6-0.1
	c1.8,0,3.6-0.8,4.7-2.2c1.7-2,3.1-9.1-1.1-12.2c-1-0.7-2.3-1-3.5-1H75V19.4c0-4.6,3.7-8.3,8.3-8.3h88.5
	C176.4,11.2,180.1,14.9,180.1,19.4z"/>
<line class="st0" x1="83.5" y1="23.8" x2="114.1" y2="23.8"/>
<line class="st0" x1="100.1" y1="41.3" x2="116.3" y2="41.3"/>
<rect x="147.7" y="26.9" class="st0" width="26.1" height="17"/>
<line class="st0" x1="148.4" y1="77.8" x2="156.1" y2="77.8"/>
<line class="st0" x1="162.6" y1="77.8" x2="170.3" y2="77.8"/>
<g>
	<line class="st0" x1="143.2" y1="106.2" x2="143.2" y2="100.2"/>
	<path class="st0" d="M76.2,102.7l1,36.3v23.1c0,4.5,3.7,8.2,8.2,8.2h31.2c-0.1-0.1-0.2-0.3-0.2-0.4c-0.9-1.8-1-3.7-0.8-5.2
		c0.3-2.3,1.5-4.3,3.3-5.7c0,0,0.1-0.1,0.1-0.1c3.4-2.5,8.8-3.7,13.7-4.3c4.7-0.6,8.9-0.5,10.2-0.5c0.2,0,0.5,0,0.7,0.1
		c5.7,0.7,9.6-0.6,11-1.2c0.2-0.1,0.3-0.2,0.4-0.2c0.1-0.1,0.3-0.1,0.4-0.2c6.9-4.5,14.4-6.9,21.7-8c0.8-0.1,1.6-0.2,2.3-0.3
		l-0.2-11.4l0-2.6v0l-0.4-26.7c0-4.5-1.7-9.2-6.3-9.2H84.4C79.9,94.5,76.2,98.2,76.2,102.7z"/>
	<path class="st0" d="M143.2,132.9c7.4,0,13.4,6,13.4,13.4c0,3.2-1.1,6.1-3,8.4"/>
	<path class="st0" d="M155.3,151.9c-0.2,0.4-0.4,0.8-0.6,1.2"/>
	<path class="st0" d="M155.3,113.9c-2.1-4.6-6.8-7.8-12.1-7.8c-7.4,0-13.4,6-13.4,13.4c0,7.4,6,13.4,13.4,13.4"/>
	<path class="st0" d="M107.1,132.3c0,10.6,4.6,20.2,11.9,26.8c0,0,0.1-0.1,0.1-0.1c3.4-2.5,8.8-3.7,13.7-4.3
		c4.7-0.6,8.9-0.5,10.2-0.5c0.2,0,0.5,0,0.7,0.1c5.7,0.7,9.6-0.6,11-1.2c0.2-0.1,0.3-0.2,0.4-0.2c0.1-0.1,0.3-0.1,0.4-0.2
		c6.9-4.5,14.4-6.9,21.7-8c1.3-3.7,2.1-7.6,2.2-11.7c0-0.2,0-0.5,0-0.7c0-0.6,0-1.2,0-1.9v0c-1-19.1-16.8-34.3-36.1-34.3
		C123.2,96.1,107.1,112.3,107.1,132.3z"/>
</g>
<g>
	
		<rect x="195.8" y="137.4" transform="matrix(-1 -4.485224e-11 4.485224e-11 -1 411.1428 333.5689)" class="st1" width="19.6" height="58.8"/>
	<path class="st1" d="M36.8,175.8c0.1,0.4,0.1,0.8,0.1,1.2c0,2.1,0.4,9.6,8,16c0.4,0.3,0.7,0.6,1.2,0.9l19,12.4
		c1.4,0.9,3.1,1.6,4.8,1.8l45.3,6.7c0.5,0.1,0.9,0.1,1.4,0.1h3.8c1.4,0,2.8-0.3,4-0.9c9.9-4.6,55.1-25.6,57.1-25.6
		c2.3,0,7.6,0.1,7.6,0.1l0.7-41.2c0,0-21.9-9-46.1-6.3c-0.9,0.1-1.8,0.2-2.8,0.3c-8.7,1.3-17.5,4.1-25.7,9.5
		c-0.1,0.1-0.3,0.2-0.4,0.3c-0.1,0.1-0.3,0.1-0.5,0.2c-1.8,0.7-6.4,2.3-13.1,1.4c-0.3,0-0.6-0.1-0.8-0.1c-1.5,0-6.4-0.1-12,0.6
		c-5.7,0.7-12.2,2.1-16.2,5c-0.1,0-0.1,0.1-0.2,0.1c-2.1,1.6-3.5,4.1-3.9,6.8c-0.3,1.8-0.2,3.9,0.9,6.1c0.1,0.2,0.2,0.3,0.3,0.5
		c1.9,3.3,5.6,5.1,9.5,5l41.7-1.5c0,0,4.1,1.7-9.2,5.6c-0.3,0.1-0.5,0.2-0.8,0.3c-2,0.8-12.8,5.1-27.5,2.5c0,0-13.6-2-15-3.5
		c0,0-5.2-4.6-11-8.4H37.1C36.6,173,36.5,174.4,36.8,175.8z"/>
	<path class="st1" d="M37.1,171.7h19.7c-2.6-1.7-5.4-3.2-7.9-4.1C43,165.7,38.5,168,37.1,171.7z"/>
</g>
</svg>
