<?xml version="1.0" encoding="utf-8"?>
<!-- Generator: Adobe Illustrator 22.0.0, SVG Export Plug-In . SVG Version: 6.00 Build 0)  -->
<svg version="1.1" id="Layer_1" xmlns="http://www.w3.org/2000/svg" xmlns:xlink="http://www.w3.org/1999/xlink" x="0px" y="0px"
	 viewBox="0 0 216 216" style="enable-background:new 0 0 216 216;" xml:space="preserve">
<style type="text/css">
	.st0{fill:none;stroke:#010202;stroke-width:4;stroke-miterlimit:10;}
</style>
<g>
	<rect x="3.5" y="2.8" class="st0" width="24.4" height="107.5"/>
	<path class="st0" d="M27.9,38.2l18.8-19.9c0.9-1,2.2-1.5,3.6-1.5h21"/>
	<path class="st0" d="M187.8,144L169.1,124c-0.9-1-2.2-1.5-3.6-1.5h-21"/>
	<line class="st0" x1="78.5" y1="57.5" x2="78.7" y2="57.5"/>
	<path class="st0" d="M27.9,83.6c0,0,31.3,13.4,45.8,1.7c0,0,1.7-2.4,4.8-5.1"/>
	<path class="st0" d="M187.4,19.7v61.8c0,4.7-3.8,8.6-8.6,8.6H87.1c-4.7,0-8.6-3.8-8.6-8.6v-1.3c4.1-3.5,10.8-7.5,19.3-6.7l13-0.1
		c1.9,0,3.7-0.8,4.9-2.3c1.8-2.1,3.2-9.5-1.1-12.6c-1-0.7-2.3-1-3.6-1H78.5V19.7c0-4.7,3.8-8.6,8.6-8.6h91.8
		C183.6,11.2,187.4,15,187.4,19.7z"/>
	<line class="st0" x1="100.5" y1="27.4" x2="137.4" y2="27.4"/>
	<line class="st0" x1="104.5" y1="42.4" x2="121.3" y2="42.4"/>
	<rect x="153.8" y="27.5" class="st0" width="27" height="17.6"/>
	<polygon class="st0" points="187.3,213.2 211.5,213.2 212.5,106.7 188.3,106.7 	"/>
	<line class="st0" x1="137.2" y1="160.8" x2="132" y2="160.8"/>
	<path class="st0" d="M187.3,186.7c0,0-31,13.3-45.3,1.6c0,0-1.7-2.4-4.8-5"/>
	<path class="st0" d="M100.4,174.3c0.2,0.2,0.4,0.4,0.6,0.6c1.2,1.1,2.7,1.6,4.2,1.6l12.9,0.1c8.4-0.8,15,3.1,19.1,6.6v1.3
		c0,4.7-3.8,8.5-8.5,8.5H38c-4.7,0-6.5-2.8-6.5-7.5l1-61.2c0-4.7,1.8-9.5,6.5-9.5h90.8c4.7,0,8.5,3.8,8.5,8.5l-1,37.4h-32.2
		c-1.3,0-2.5,0.3-3.6,1C97.2,164.9,98.6,172.2,100.4,174.3z"/>
	<path class="st0" d="M106.8,154.5c0,2.1-0.2,4.3-0.5,6.3h-1.2c-1.3,0-2.5,0.3-3.6,1c-4.3,3.1-2.9,10.4-1.1,12.5
		c0.2,0.2,0.4,0.4,0.6,0.6c-6.8,10.9-18.9,18.1-32.7,18.1c-21.3,0-36.5-16.2-36.5-37.5c0-21.3,16.3-39.6,37.5-39.6
		C90.6,116,106.8,133.2,106.8,154.5z"/>
	<line class="st0" x1="154.5" y1="80.2" x2="162.6" y2="80.2"/>
	<line class="st0" x1="169.3" y1="80.2" x2="177.3" y2="80.2"/>
	<g>
		<path class="st0" d="M56.8,174.1c2.2,4.7,7,8,12.5,8c7.6,0,13.8-6.2,13.8-13.8s-6.2-13.8-13.8-13.8"/>
		<path class="st0" d="M81.8,135c-2.2-4.7-7-8-12.5-8c-7.6,0-13.8,6.2-13.8,13.8s6.2,13.8,13.8,13.8"/>
		<line class="st0" x1="69.3" y1="188.2" x2="69.3" y2="182.1"/>
		<line class="st0" x1="69.3" y1="127" x2="69.3" y2="120.9"/>
	</g>
</g>
</svg>
