<?xml version="1.0" encoding="utf-8"?>
<!-- Generator: Adobe Illustrator 22.0.0, SVG Export Plug-In . SVG Version: 6.00 Build 0)  -->
<svg version="1.1" id="Layer_1" xmlns="http://www.w3.org/2000/svg" xmlns:xlink="http://www.w3.org/1999/xlink" x="0px" y="0px"
	 viewBox="0 0 216 216" style="enable-background:new 0 0 216 216;" xml:space="preserve">
<style type="text/css">
	.st0{fill:none;stroke:#FFFFFF;stroke-width:15;stroke-miterlimit:10;}
	.st1{fill:#FFFFFF;}
</style>
<path class="st0" d="M142.8,205.9H30.2c-9.8,0-17.7-7.9-17.7-17.7V50.8c0-9.8,7.9-17.7,17.7-17.7h79.1c28.3,0,51.2,22.9,51.2,51.2
	v103.9C160.5,198,152.6,205.9,142.8,205.9z"/>
<path class="st0" d="M52.5,33.1v-5.9c0-9.8,7.9-17.7,17.7-17.7h79.1c28.3,0,51.2,22.9,51.2,51.2v103.9c0,9.8-7.9,17.7-17.7,17.7
	h-22.3"/>
<path class="st1" d="M115.5,33.5l0,33.8c0,9,7.3,16.3,16.2,16.3h28.7C160.5,83.5,160.5,43.4,115.5,33.5z"/>
<path class="st1" d="M160,15l0,33.8c0,9,7.3,16.3,16.2,16.3H205C205,65,205,24.9,160,15z"/>
<path class="st1" d="M115,112H49c-1.6,0-3-1.3-3-3v-2c0-1.7,1.3-3,3-3h66c1.7,0,3,1.3,3,3v2C118,110.7,116.7,112,115,112z"/>
<path class="st1" d="M117,110L117,110c-1.6,1.6-4.1,1.6-5.7,0L86,84.6c-1.6-1.6-1.6-4.1,0-5.7l0,0c1.6-1.6,4.1-1.6,5.7,0l25.4,25.4
	C118.6,105.9,118.6,108.4,117,110z"/>
<path class="st1" d="M117,107L117,107c-1.6-1.6-4.1-1.6-5.7,0L86,132.3c-1.6,1.6-1.6,4.1,0,5.7h0c1.6,1.6,4.1,1.6,5.7,0l25.4-25.4
	C118.6,111.1,118.6,108.5,117,107z"/>
<path class="st1" d="M42.2,159h66c1.7,0,3-1.4,3-3v-2c0-1.6-1.3-3-3-3h-66c-1.6,0-3,1.4-3,3v2C39.2,157.6,40.5,159,42.2,159z"/>
<path class="st1" d="M40.2,157L40.2,157c1.6,1.6,4.1,1.6,5.7,0l25.4-25.4c1.6-1.6,1.6-4.1,0-5.7l0,0c-1.6-1.6-4.1-1.6-5.7,0
	l-25.4,25.4C38.6,152.9,38.6,155.4,40.2,157z"/>
<path class="st1" d="M40.2,154L40.2,154c1.6-1.6,4.1-1.6,5.7,0l25.4,25.4c1.6,1.6,1.6,4.1,0,5.7h0c-1.6,1.6-4.1,1.6-5.7,0
	l-25.4-25.4C38.6,158.1,38.6,155.5,40.2,154z"/>
</svg>
