<?xml version="1.0" encoding="utf-8"?>
<!-- Generator: Adobe Illustrator 22.0.0, SVG Export Plug-In . SVG Version: 6.00 Build 0)  -->
<svg version="1.1" id="Layer_1" xmlns="http://www.w3.org/2000/svg" xmlns:xlink="http://www.w3.org/1999/xlink" x="0px" y="0px"
	 viewBox="0 0 216 216" style="enable-background:new 0 0 216 216;" xml:space="preserve">
<path d="M159.3,57c-0.5-0.8-1-1.6-1.6-2.4c-10.1-15-27.3-24.9-46.7-24.9H32c-13.3,0-24.1,10.8-24.1,24.1v135
	C7.9,202.2,18.7,213,32,213h111.2c12.8,0,23.4-10.1,24.1-22.7c0-0.5,0-0.9,0-1.4V86.1C167.4,75.4,164.4,65.5,159.3,57z M152.7,188.8
	c0,0.5,0,1-0.1,1.5c-0.7,5-5.1,8.9-10.3,8.9H32.7c-5.8,0-10.4-4.7-10.4-10.4V54c0-5.8,4.7-10.4,10.4-10.4h63.6
	c6.9,0,13.5,1.2,19.7,3.5c17.4,6.5,30.7,21.2,35.1,39.5c1,4.3,1.6,8.8,1.6,13.4V188.8z"/>
<path d="M151.1,86.5h-17.9c-9.5,0-17.2-7.7-17.2-17.2V47.1C133.4,53.5,146.7,68.3,151.1,86.5z"/>
<path d="M150.8,7h-79C58.9,7,48.4,17.1,47.7,29.7c0,0.5,0,0.9,0,1.4v12.4h14.4V31.2c0-0.5,0-1,0.1-1.5c0.7-5,5.1-8.9,10.3-8.9h63.6
	c6.9,0,13.5,1.2,19.7,3.5c17.4,6.5,30.7,21.2,35.1,39.5c1,4.3,1.6,8.8,1.6,13.4V166c0,5.8-4.7,10.4-10.4,10.4h-29.3v12.3
	c0,0.5,0,1-0.1,1.5H183c13.3,0,24.1-10.8,24.1-24.1V63.4C207.1,32.2,181.9,7,150.8,7z"/>
<path d="M190.9,63.8H173c-9.5,0-17.2-7.7-17.2-17.2V24.3C173.1,30.8,186.4,45.6,190.9,63.8z"/>
<path d="M118.6,109.5v0.7c0,0.9-0.4,1.8-1.1,2.3c0.1,1.1-0.3,2.2-1.2,3.1l-23.5,23.5c-0.8,0.8-1.8,1.2-2.8,1.2c-1,0-2-0.4-2.8-1.2
	c-1.6-1.6-1.6-4.1,0-5.6l20.2-20.2H50.8c-1.7,0-3.1-1.4-3.1-3.1v-0.7c0-1.7,1.4-3.1,3.1-3.1h55.6L87.1,87c-1.6-1.6-1.6-4.1,0-5.6
	c0.8-0.8,1.8-1.2,2.8-1.2c1,0,2,0.4,2.8,1.2l23.5,23.5c0.6,0.6,0.9,1.3,1.1,2C118.1,107.5,118.6,108.5,118.6,109.5z"/>
<path d="M112.3,155.6v0.7c0,1.7-1.4,3.1-3.1,3.1H52.5l20.2,20.2c1.6,1.6,1.6,4.1,0,5.6c-0.8,0.8-1.8,1.2-2.8,1.2c-1,0-2-0.4-2.8-1.2
	l-23.5-23.5c-0.8-0.8-1.2-2-1.2-3.1c-0.6-0.6-1.1-1.4-1.1-2.3v-0.7c0-1.1,0.5-2,1.3-2.6c0.1-0.7,0.5-1.5,1.1-2l23.5-23.5
	c0.8-0.8,1.8-1.2,2.8-1.2c1,0,2,0.4,2.8,1.2c1.6,1.6,1.6,4.1,0,5.6l-19.4,19.4h55.6C110.9,152.5,112.3,153.9,112.3,155.6z"/>
<path d="M116.6,105.4c0,0,5,4.4,0.7,9"/>
<path d="M42.6,160.2c0,0-3.9-4.2,0.8-8.7"/>
</svg>
