<?xml version="1.0" encoding="utf-8"?>
<!-- Generator: Adobe Illustrator 22.0.0, SVG Export Plug-In . SVG Version: 6.00 Build 0)  -->
<svg version="1.1" id="Layer_1" xmlns="http://www.w3.org/2000/svg" xmlns:xlink="http://www.w3.org/1999/xlink" x="0px" y="0px"
	 viewBox="0 0 216 216" style="enable-background:new 0 0 216 216;" xml:space="preserve">
<path d="M57.2,190.8h18.1v-44.3H57.2V190.8z M85.4,190.8h18.1v-62.4H85.4V190.8z M112.6,190.8h18.1v-55.4h-18.1V190.8z M140.8,190.8
	h18.1v-80.6h-18.1V190.8z M102.6,20.6H52.2v7h50.4V20.6z M102.6,42.8H52.2v7h50.4V42.8z M102.6,62.9H52.2v7h50.4V62.9z M141.5,10.1
	L141.5,10.1L133.3,2H24.5v212.5h169.2V61.9h0.5L141.5,10.1z M140.8,18.6l36.3,36.3h-36.3V18.6z M185.6,206.4H32.6V10.1h101.3
	l0.1,6.6l-0.2-2v47.3h51.9V206.4z M95.5,102.1l-37.3,37.3l2.1,2.1l35.2-35.2l19.1,19.1l36.3-35.3v12h3V85.1h-18.1v3h12.9l-34.1,33.1
	L95.5,102.1z"/>
</svg>
