<?xml version="1.0" encoding="utf-8"?>
<!-- Generator: Adobe Illustrator 22.0.0, SVG Export Plug-In . SVG Version: 6.00 Build 0)  -->
<svg version="1.1" id="Layer_1" xmlns="http://www.w3.org/2000/svg" xmlns:xlink="http://www.w3.org/1999/xlink" x="0px" y="0px"
	 viewBox="0 0 216 216" style="enable-background:new 0 0 216 216;" xml:space="preserve">
<style type="text/css">
	.st0{fill:none;stroke:#FFFFFF;stroke-width:18;stroke-miterlimit:10;}
	.st1{fill:#FFFFFF;}
	.st2{fill:none;stroke:#FFFFFF;stroke-width:10;stroke-miterlimit:10;}
</style>
<path class="st0" d="M173.7,202H53.3c-9.5,0-17.3-7.7-17.3-17.3V33.3C36,23.7,43.7,16,53.3,16h120.5c9.5,0,17.3,7.7,17.3,17.3v151.5
	C191,194.3,183.3,202,173.7,202z"/>
<path class="st1" d="M117,73H63c-3.8,0-7-3.1-7-7v0c0-3.8,3.1-7,7-7h54c3.8,0,7,3.1,7,7v0C124,69.9,120.9,73,117,73z"/>
<path class="st1" d="M96.5,92h-37c-1.9,0-3.5-1.6-3.5-3.5l0,0c0-1.9,1.6-3.5,3.5-3.5h37c1.9,0,3.5,1.6,3.5,3.5l0,0
	C100,90.4,98.4,92,96.5,92z"/>
<path class="st1" d="M96.5,113h-37c-1.9,0-3.5-1.6-3.5-3.5l0,0c0-1.9,1.6-3.5,3.5-3.5h37c1.9,0,3.5,1.6,3.5,3.5l0,0
	C100,111.4,98.4,113,96.5,113z"/>
<circle class="st2" cx="136" cy="139" r="38"/>
<polyline class="st2" points="113.5,109.5 136,139 174,139 "/>
</svg>
