<?xml version="1.0" encoding="utf-8"?>
<!-- Generator: Adobe Illustrator 22.0.0, SVG Export Plug-In . SVG Version: 6.00 Build 0)  -->
<svg version="1.1" id="Layer_1" xmlns="http://www.w3.org/2000/svg" xmlns:xlink="http://www.w3.org/1999/xlink" x="0px" y="0px"
	 viewBox="0 0 216 216" style="enable-background:new 0 0 216 216;" xml:space="preserve">
<style type="text/css">
	.st0{fill:none;stroke:#7E8380;stroke-width:15;stroke-miterlimit:10;}
	.st1{fill:#7E8380;}
</style>
<circle class="st0" cx="94.3" cy="70.6" r="52.1"/>
<path class="st0" d="M48.9,119.2l-28.2,66c-3.7,8.7,2.4,18.6,11.5,18.6h97.2"/>
<path class="st1" d="M207,139.6h-62.2c-2.2,0-4-1.8-4-4v-2.3c0-2.2,1.8-4,4-4H207c2.2,0,4,1.8,4,4v2.3
	C211,137.8,209.2,139.6,207,139.6z"/>
<path class="st1" d="M207,175.8h-62.2c-2.2,0-4-1.8-4-4v-2.3c0-2.2,1.8-4,4-4H207c2.2,0,4,1.8,4,4v2.3
	C211,174,209.2,175.8,207,175.8z"/>
<path class="st1" d="M207,209h-62.2c-2.2,0-4-1.8-4-4v-2.3c0-2.2,1.8-4,4-4H207c2.2,0,4,1.8,4,4v2.3C211,207.2,209.2,209,207,209z"
	/>
</svg>
