<?xml version="1.0" encoding="utf-8"?>
<!-- Generator: Adobe Illustrator 22.0.0, SVG Export Plug-In . SVG Version: 6.00 Build 0)  -->
<svg version="1.1" id="Layer_1" xmlns="http://www.w3.org/2000/svg" xmlns:xlink="http://www.w3.org/1999/xlink" x="0px" y="0px"
	 viewBox="0 0 216 216" style="enable-background:new 0 0 216 216;" xml:space="preserve">
<style type="text/css">
	.st0{fill:none;stroke:#C956B5;stroke-width:16;stroke-miterlimit:10;}
	.st1{fill:none;stroke:#C956B5;stroke-width:8;stroke-miterlimit:10;}
	.st2{fill:#C956B5;}
</style>
<circle class="st0" cx="120.3" cy="114.1" r="57.4"/>
<polyline class="st1" points="108,56.7 76.2,39.3 30,91.6 "/>
<circle class="st1" cx="20.8" cy="103.9" r="14.4"/>
<circle class="st1" cx="74.1" cy="23.9" r="14.4"/>
<circle class="st1" cx="191" cy="56.7" r="14.4"/>
<path class="st1" d="M208.4,201.9l-0.5,0.5c-5.5,6-14.9,6.3-20.9,0.8l-16.7-15.5c-6-5.5-6.3-14.9-0.8-20.9l0.5-0.5
	c5.5-6,14.9-6.3,20.9-0.8l16.7,15.5C213.6,186.6,213.9,196,208.4,201.9z"/>
<line class="st1" x1="159.5" y1="156.1" x2="171.5" y2="168.7"/>
<line class="st1" x1="163.1" y1="76" x2="178.7" y2="64.1"/>
<path class="st2" d="M120.4,140.8h-0.3c-2.8,0-5-2.3-5-5V91.5c0-2.8,2.3-5,5-5h0.3c2.7,0,5,2.3,5,5v44.3
	C125.4,138.6,123.1,140.8,120.4,140.8z"/>
<path class="st2" d="M94.8,128.5h-0.3c-3.3,0-6-2.7-6-6v-15.7c0-3.3,2.7-6,6-6h0.3c3.3,0,6,2.7,6,6v15.7
	C100.8,125.8,98.1,128.5,94.8,128.5z"/>
<path class="st2" d="M147.1,128.5h-0.3c-3.3,0-6-2.7-6-6v-15.7c0-3.3,2.7-6,6-6h0.3c3.3,0,6,2.7,6,6v15.7
	C153.1,125.8,150.4,128.5,147.1,128.5z"/>
</svg>
