<svg id="Layer_1" data-name="Layer 1" xmlns="http://www.w3.org/2000/svg" viewBox="0 0 210 210"><title>User Role Permission Created</title><path d="M97.16,21.69A39.38,39.38,0,1,1,57.78,61.06,39.41,39.41,0,0,1,97.16,21.69M97.16,2a59.07,59.07,0,1,0,59.06,59.06A59.07,59.07,0,0,0,97.16,2Z" transform="translate(-2 -2)"/><rect x="142.19" y="115.94" width="67.81" height="19.69" rx="9" ry="9"/><rect x="142.19" y="153.13" width="67.81" height="19.69" rx="9" ry="9"/><rect x="142.19" y="190.31" width="67.81" height="19.69" rx="9" ry="9"/><path d="M116.84,192.31H30.44c-1.14-.27-5.87-1.51-7.63-5.52-1-2.25-.62-4.41,0-7.6a35.21,35.21,0,0,1,3.28-9.85c3.08-6,10.61-16,21.88-27.34,7.65-7.66,1.09-14.22,0-15.31-9.85-6.56-16.41,3.28-18.6,5.47C4.19,155.13,2,181.38,2,184.66,5.28,210.91,27.89,212,27.89,212l-.1-.37a10,10,0,0,0,2.65.37h86.4a9.85,9.85,0,1,0,0-19.69Z" transform="translate(-2 -2)"/></svg>