<svg id="Layer_1" data-name="Layer 1" xmlns="http://www.w3.org/2000/svg" viewBox="0 0 193.64 171.3"><defs><style>.cls-1{fill:#fff;}</style></defs><title>Attach Svg</title><path class="cls-1" d="M189.62,35.35C169.81,15,139,14.74,116.37,30.58,101.58,40.93,89.16,56,76.28,68.59,62.18,82.38,47.91,96,34,110c-8.24,8-16.73,16.48-20.62,27.31-6.1,17,1.55,36,16.72,45.26C49.5,194.45,69.86,184.29,85,170.21c22.85-21.3,44.7-44.1,66.81-66.21,6.57-6.43,13.49-13.5,14.92-22.58a21.51,21.51,0,0,0-24.95-24.55C133.05,58.4,126.26,65,120,71.2l-35.9,36.06L65.72,125.75c-1.13,1.13-2.37,2.29-3.66,3.44-.91.84-1.86,1.68-2.79,2.54A7.37,7.37,0,0,0,69,142.22c1.14-1.25,2.24-2.51,3.35-3.79,2.69-3.1,5.35-6.24,8.21-9.2q6.64-6.88,13.38-13.68,19-19.06,38.72-37.3c2.56-2.34,5.19-4.74,8.44-5.94s7.28-1,9.7,1.51,2.58,6.74,1.18,10-4,5.83-6.59,8.31l-70.12,68c-6.47,6.28-13.51,12.84-22.39,14.37A22.54,22.54,0,0,1,27,147.34c1.85-8.24,8.06-14.71,14-20.71Q73.5,93.93,106,61.22c10.32-10.4,21.44-21.25,35.71-24.54a39,39,0,0,1,45.93,50.06c-4,12.26-13.62,21.69-22.93,30.6l-7.58,7.26q-15.81,15.12-31.62,30.25L109.67,170c-.91.87-1.86,1.75-2.82,2.61h0c-1.36,1.24-2.76,2.47-4.14,3.75h0a9.48,9.48,0,0,0,11.94,13.51,0,0,0,0,0,0,0c1.19-1.12,2.25-2.18,3.16-3.06.54-.53,1.1-1.06,1.63-1.6,4.39-4.41,8.53-9,12.94-13.39,13-12.82,26.38-25.26,39.19-38.29C183,121.8,195.3,109.57,201.26,94,208.8,74.2,204.42,50.62,189.62,35.35Z" transform="translate(-11.25 -19.31)"/></svg>