<svg id="Layer_1" data-name="Layer 1" xmlns="http://www.w3.org/2000/svg" viewBox="0 0 211.83 180"><defs><style>.cls-1{fill:#585858;}</style></defs><title>excel</title><path class="cls-1" d="M213.48,21.22H116.85a.69.69,0,0,0-.68.73v164.1a.69.69,0,0,0,.68.73h96.63a.71.71,0,0,0,.69-.73V22A.71.71,0,0,0,213.48,21.22ZM155.07,179.75H133.3v-20.7h21.77Zm0-30.66H133.3V128.4h21.77Zm0-30.65H133.3V97.75h21.77Zm0-30.65H133.3V67.1h21.77Zm0-30.66H133.3V36.44h21.77Zm54,122.62H162.32v-20.7h46.77Zm0-30.66H162.32V128.4h46.77Zm0-30.65H162.32V97.75h46.77Zm0-30.65H162.32V67.1h46.77Zm0-30.66H162.32V36.44h46.77Z" transform="translate(-2.33 -14)"/><path class="cls-1" d="M123.23,21.22a17.38,17.38,0,0,0-17-7l-89.4,14.9A17.39,17.39,0,0,0,2.33,46.3V161.7a17.39,17.39,0,0,0,14.53,17.16l89.4,14.9a17.38,17.38,0,0,0,20.25-17.16V31.4A17.3,17.3,0,0,0,123.23,21.22Zm-35,113.54a7.52,7.52,0,0,1-4.29,3.9,8.19,8.19,0,0,1-2.7.48,8.1,8.1,0,0,1-3.41-.75A7.3,7.3,0,0,1,75,136.13l-13.8-18.31-13.9,18.31a7.15,7.15,0,0,1-2.79,2.26,8,8,0,0,1-3.4.75,7.41,7.41,0,0,1-3.41-.75,7.59,7.59,0,0,1-2.38-1.85,8,8,0,0,1-1.43-2.49,8.35,8.35,0,0,1-.48-2.69,7.63,7.63,0,0,1,1.5-4.6L51.45,105l-15-19.83a7.57,7.57,0,0,1-1.51-4.6,7.37,7.37,0,0,1,.76-3.49,7.47,7.47,0,0,1,2-2.44,7.89,7.89,0,0,1,2.51-1.41,8,8,0,0,1,2.58-.44,7.44,7.44,0,0,1,3.36.79,7.86,7.86,0,0,1,2.73,2.29l12.4,16.29,12.3-16.29a7.93,7.93,0,0,1,2.78-2.29,7.78,7.78,0,0,1,3.42-.79,8.53,8.53,0,0,1,2.38.39,8,8,0,0,1,2.52,1.28,6.83,6.83,0,0,1,2,2.39,7.78,7.78,0,0,1,.8,3.72A8.41,8.41,0,0,1,87,83a5.91,5.91,0,0,1-1.15,2.17L70.83,105l16.55,21.77a6.22,6.22,0,0,1,1.15,2.17,8.65,8.65,0,0,1,.35,2.43A7.73,7.73,0,0,1,88.18,134.76Z" transform="translate(-2.33 -14)"/></svg>