<svg id="Layer_1" data-name="Layer 1" xmlns="http://www.w3.org/2000/svg" viewBox="0 0 206.46 114.23"><defs><style>.cls-1{fill:#ffb81c;}</style></defs><title>Eye</title><path class="cls-1" d="M206.11,106.68C193.21,94,166.76,71.57,134.35,62.55a99.23,99.23,0,0,0-55.16,0C46.81,71.57,20.36,94,7.43,106.68a12.51,12.51,0,0,0,0,18.14c16.44,16.11,54.73,48,99.36,48s82.88-31.93,99.32-48A12.51,12.51,0,0,0,206.11,106.68ZM191.79,123.5c-14,13.75-46.61,40.93-84.6,41.12h-.4c-38.2,0-70.91-27.32-85-41.12a10.75,10.75,0,0,1,0-15.5c8.83-8.64,25.06-22.66,45.34-31.87,1-.44,1.93-.87,2.92-1.29a94.57,94.57,0,0,1,36.76-8h.4a94.84,94.84,0,0,1,36.35,8c1,.4,1.93.82,2.89,1.29,20.3,9.21,36.51,23.2,45.36,31.87A10.73,10.73,0,0,1,191.79,123.5Z" transform="translate(-3.54 -58.64)"/><path class="cls-1" d="M147.07,77.19a3.52,3.52,0,0,0-.24-.4c-.12-.21-.26-.44-.4-.66A45.59,45.59,0,0,0,137,64.9a118.82,118.82,0,0,0-60.46,0,46.11,46.11,0,0,0-9.44,11.23c-.21.36-.4.71-.61,1.06-.1.17-.17.31-.26.48a45.71,45.71,0,0,0-5.68,22.18,46.22,46.22,0,1,0,86.51-22.66ZM106.2,79.64a3,3,0,0,1-2.11,1.61c-2,.49-4,0-6,.4a23.87,23.87,0,0,0-6.73,2.42,18.73,18.73,0,0,0-7.75,8.39c-2.24,4.68.68,10.83-4.24,14.18-3.18,2.19-8.08,1.69-9.4-2.38-2.9-9.17,2.29-19.79,9-26,4.76-4.38,10.55-6.69,16.79-8,4.1-.85,9.94-.66,11,4.36A8.83,8.83,0,0,1,106.2,79.64Z" transform="translate(-3.54 -58.64)"/></svg>