<?xml version="1.0" encoding="utf-8"?>
<!-- Generator: Adobe Illustrator 22.0.0, SVG Export Plug-In . SVG Version: 6.00 Build 0)  -->
<svg version="1.1" id="Layer_1" xmlns="http://www.w3.org/2000/svg" xmlns:xlink="http://www.w3.org/1999/xlink" x="0px" y="0px"
	 viewBox="0 0 216 216" style="enable-background:new 0 0 216 216;" xml:space="preserve">
<style type="text/css">
	.st0{fill:#C956B5;}
</style>
<path class="st0" d="M84.4,4.4C41.1,4.4,6.1,39.5,6.1,82.7s35.1,78.3,78.3,78.3s78.3-35.1,78.3-78.3S127.6,4.4,84.4,4.4z
	 M84.4,134.9c-28.8,0-52.1-23.3-52.1-52.1c0-28.8,23.3-52.1,52.1-52.1s52.1,23.3,52.1,52.1C136.5,111.5,113.2,134.9,84.4,134.9z"/>
<path class="st0" d="M202.4,200.9l-3.1,3.4c-4.1,4.4-11,4.7-15.5,0.6l-61.4-56.5c-4.4-4.1-4.7-11-0.6-15.5l3.1-3.4
	c4.1-4.4,11-4.7,15.5-0.6l61.4,56.5C206.2,189.5,206.5,196.4,202.4,200.9z"/>
</svg>
