<svg id="Layer_1" data-name="Layer 1" xmlns="http://www.w3.org/2000/svg" viewBox="0 0 216 216"><defs><style>.cls-1{fill:#fff;}</style></defs><title>Upload other</title><path class="cls-1" d="M111.93,147h-1m75-42.3a1.41,1.41,0,0,1-.93-1.65c9.32-44.81-43-47.61-48.12-47.78a1.43,1.43,0,0,1-.74-.25C64.63,4.79,27.69,76.34,25.27,81.24a1.24,1.24,0,0,1-.37.45c-26,21.21-31.69,50.45-11,78.22a37,37,0,0,0,7.86,8.22,19.24,19.24,0,0,0,3.84,2.07c13.1,5.34,36.74,1.26,49.73,1.26H202.52a1.4,1.4,0,0,0,1.15-.61C236.68,123.51,193.82,107.23,185.9,104.7Zm-61.28-3.81H117.4v47a3.16,3.16,0,0,1-2,2.55,10.81,10.81,0,0,1-4.91,1.06c-4.89,0-8.85-2.06-8.85-4.6v-46h-8c-4.69,0-7.63-2.64-5.28-4.76l18.63-16.79a4.73,4.73,0,0,1,5.18,0l18.23,16.42C132.85,98,129.68,100.89,124.62,100.89Z"/></svg>