<svg id="Layer_1" data-name="Layer 1" xmlns="http://www.w3.org/2000/svg" viewBox="0 0 216 216"><defs><style>.cls-1{fill:#fff;}</style></defs><title>Upload other</title><path class="cls-1" d="M112.14,147h-1m75.73-42.3a1.41,1.41,0,0,1-.94-1.65c9.42-44.81-43.45-47.61-48.6-47.78a1.43,1.43,0,0,1-.75-.25C64.37,4.79,27.05,76.34,24.6,81.24a1.24,1.24,0,0,1-.37.45c-26.31,21.21-32,50.45-11.08,78.22a36.88,36.88,0,0,0,7.94,8.22A19.5,19.5,0,0,0,25,170.2c13.24,5.34,37.12,1.26,50.24,1.26H203.66a1.41,1.41,0,0,0,1.16-.61C238.17,123.51,194.87,107.23,186.87,104.7ZM129.9,134l-18.64,16.79a4.69,4.69,0,0,1-5.18,0L87.86,134.33c-2.53-2.29.63-5.14,5.7-5.14h7.22v-47a3.16,3.16,0,0,1,2-2.55,10.81,10.81,0,0,1,4.91-1.06c4.88,0,8.85,2.07,8.85,4.61v46h8C129.31,129.19,132.25,131.84,129.9,134Z"/></svg>