<?xml version="1.0" encoding="utf-8"?>
<!-- Generator: Adobe Illustrator 22.0.0, SVG Export Plug-In . SVG Version: 6.00 Build 0)  -->
<svg version="1.1" id="Layer_1" xmlns="http://www.w3.org/2000/svg" xmlns:xlink="http://www.w3.org/1999/xlink" x="0px" y="0px"
	 viewBox="0 0 216 216" style="enable-background:new 0 0 216 216;" xml:space="preserve">
<style type="text/css">
	.st0{fill:#575757;}
</style>
<path class="st0" d="M207,110c0,0-105,0-113,0s-8,5-8,5l-16.8,78h-7.4c1.7-5.2,4.3-14.6,6.1-28c0,0-15-14-19-41c13,0,26,0,26,0
	s-6.4-3.2-9.2-6H47c-19.8,0-36,16.2-36,36v39.3c-4,1.1-7,4.8-7,9.2c0,5.2,4.3,9.5,9.5,9.5h191c5.2,0,9.5-4.3,9.5-9.5
	s-4.3-9.5-9.5-9.5h-6.3c1.8-8.3,13.9-65.7,15.8-74C216,110,207,110,207,110z M142.4,173c-7.4,0.5-13.9-5.1-14.4-12.6
	c-0.5-7.4,5.1-13.9,12.6-14.4c7.4-0.5,13.9,5.1,14.4,12.5C155.5,166.1,149.9,172.5,142.4,173z M85.4,175.8l10.4-49.9
	c0.3-1.6,1.7-2.7,3.3-2.8c0.2,0,0.3,0,0.5,0h51c1.9,0,3.5,1.6,3.5,3.5c0,1-0.4,1.8-1,2.5c-0.6,0.6-1.5,1-2.5,1H102l-9.8,47.2
	c-0.4,1.9-2.3,3.1-4.1,2.7c-1.6-0.3-2.8-1.8-2.8-3.4C85.3,176.2,85.3,176,85.4,175.8z M204.5,199c1.9,0,3.5,1.6,3.5,3.5
	s-1.6,3.5-3.5,3.5h-191c-1.9,0-3.5-1.6-3.5-3.5s1.6-3.5,3.5-3.5H204.5z M55.5,94.5c1,2,6,14,22.5,23.5l2-7c0,0-15-7-20-23V53
	c0,0,8.5-27.5,43.5-28.5c12,1,33,6,41,28v36c0,0-3,10-9,15h7c0,0,3-1,6-9c0.9,0,13.8,3.4,21.3-11.1c1.1-2.2,1.7-4.7,1.7-7.2
	c-0.2-14.9-2.2-23.2-5-30.7c-2.7-7.1-13.2-33.1-49.9-41.7c-0.2,0-0.4-0.1-0.6-0.1c0,0,0,0-0.1,0c-10.9-2.4-20.4-1.3-24.7-0.5
	c0,0-0.1,0-0.1,0c-0.7,0.1-1.4,0.3-2.2,0.5c-0.1,0-0.2,0-0.2,0c0,0,0,0,0,0C70.5,7.7,42,19.4,33.5,62.5
	C33.5,78.5,32.5,95.5,55.5,94.5z M102,8c49,4,58,40,58,40c-7-3-11-1-11,0c-14-29-41-30-45-30c-34,2-45,22-48,29c-6-2-11,1-11,1
	C59,12,89,9,102,8z"/>
</svg>
